<?xml version="1.0" encoding="utf-8"?>
<!-- Generator: Adobe Illustrator 24.1.0, SVG Export Plug-In . SVG Version: 6.00 Build 0)  -->
<svg version="1.1" id="圖層_1" xmlns="http://www.w3.org/2000/svg" xmlns:xlink="http://www.w3.org/1999/xlink" x="0px" y="0px"
	 viewBox="0 0 52.8 80.6" enable-background="new 0 0 52.8 80.6" xml:space="preserve">
<g id="圖層_2_1_">
	<g id="圖層_1-2">
		<path fill="#FFFFFF" d="M0,36.8c16.1,6.9,32.2-3.2,48.3,1.8c1-12.1,1.9-24.1,2.9-36.1C35.1-4.4,19,5.7,2.9,0.7
			C1.9,12.8,1,24.8,0,36.8z"/>
		<path fill="#C1272D" d="M2.7,3.5c16.1,5.1,32.2-5,48.3,1.8c0.1-0.9,0.2-1.8,0.2-2.8C35.1-4.4,19,5.7,2.9,0.7
			C2.8,1.6,2.8,2.6,2.7,3.5z"/>
		<path fill="#C1272D" d="M2.2,9.1c16.1,5.4,32.2-4.7,48.3,1.7C50.6,9.9,50.7,9,50.7,8C34.6,1.4,18.5,11.5,2.5,6.3
			C2.4,7.2,2.3,8.1,2.2,9.1z"/>
		<path fill="#C1272D" d="M1.8,14.6c16.1,5.7,32.2-4.4,48.3,1.7c0.1-0.9,0.1-1.8,0.2-2.8C34.2,7.3,18.1,17.4,2,11.8
			C1.9,12.8,1.9,13.7,1.8,14.6z"/>
		<path fill="#C1272D" d="M1.3,20.2c16.1,6,32.2-4.1,48.3,1.7c0.1-0.9,0.2-1.9,0.2-2.8c-16.1-6-32.2,4.1-48.3-1.7
			C1.5,18.3,1.4,19.3,1.3,20.2z"/>
		<path fill="#C1272D" d="M0.9,25.7C17,32,33.1,21.9,49.2,27.4c0.1-0.9,0.2-1.9,0.2-2.8C33.3,19,17.2,29.1,1.1,23
			C1,23.9,1,24.8,0.9,25.7z"/>
		<path fill="#C1272D" d="M0.4,31.2c16.1,6.6,32.2-3.5,48.3,1.7l0.2-2.8c-16.1-5.4-32.2,4.7-48.3-1.7C0.6,29.4,0.5,30.3,0.4,31.2z"
			/>
		<path fill="#C1272D" d="M0,36.8c16.1,6.9,32.2-3.2,48.3,1.8c0.1-0.9,0.2-1.9,0.2-2.8c-16.1-5.1-32.2,5-48.3-1.8
			C0.2,34.9,0.1,35.9,0,36.8z"/>
		<path fill="#1B1464" d="M24,21.3c8.5-1.1,17.1-2.5,25.6,0.6c0.5-6.5,1-12.9,1.6-19.4C42.6-1.2,34.1,0,25.5,1.1L24,21.3z"/>
		<path fill="#FFFFFF" d="M48.4,5.3l0.4-0.1c0,0,0,0,0.1,0l0.4,0.3c0.1,0.1,0.1,0,0.1-0.1V4.9c0,0,0,0,0-0.1l0.3-0.2
			c0.1,0,0-0.1,0-0.2l-0.4-0.2c0,0-0.1,0-0.1-0.1C49.1,4,49,3.9,49,3.7s-0.1-0.1-0.2,0S48.7,4,48.6,4.1 M48.6,4.1h-0.5
			c-0.1,0-0.1,0.1,0,0.1l0.3,0.4v0.1l-0.1,0.4l0.1,0.1L48.6,4.1z"/>
		<path fill="#FFFFFF" d="M45.1,4.4l0.4-0.2h0.1L46,4.5h0.1c0,0,0,0,0-0.1L46,4V3.9l0.3-0.3c0,0,0.1-0.1,0-0.2l0,0l-0.4-0.2
			c0,0-0.1,0-0.1-0.1c0-0.2-0.1-0.3-0.2-0.5c0,0-0.1-0.1-0.1,0l0,0c-0.1,0.1-0.2,0.3-0.2,0.4c0,0,0,0-0.1,0h-0.4
			c-0.1,0-0.1,0.1-0.1,0.1l0,0L45,3.7v0.1l-0.1,0.5C44.9,4.3,44.9,4.4,45.1,4.4C45,4.4,45,4.4,45.1,4.4z"/>
		<path fill="#FFFFFF" d="M41.5,3.9l0.4-0.2c0,0,0,0,0.1,0L42.4,4h0.1c0,0,0,0,0-0.1V3.4V3.3L42.8,3c0,0,0.1-0.1,0-0.1l0,0l-0.4-0.1
			c0,0-0.1,0-0.1-0.1l-0.2-0.5c0,0-0.1-0.1-0.1,0l0,0l-0.2,0.4c0,0,0,0-0.1,0h-0.4c-0.1,0-0.1,0.1-0.1,0.1l0,0l0.3,0.4v0.1l-0.1,0.5
			C41.4,3.9,41.4,4,41.5,3.9z"/>
		<path fill="#FFFFFF" d="M38.1,3.8l0.4-0.2h0.1L39,3.8c0.1,0,0.1,0,0.1-0.1V3.2V3.1l0.3-0.3c0,0,0.1-0.1,0-0.1l0,0L39,2.5
			c0,0,0,0-0.1,0l-0.2-0.4c0-0.1-0.1-0.1-0.2,0l-0.2,0.5c0,0,0,0-0.1,0l-0.4,0.1c-0.1,0-0.1,0.1-0.1,0.1l0,0L38,3.1v0.1L38.1,3.8
			C38,3.7,38,3.8,38.1,3.8L38.1,3.8z"/>
		<path fill="#FFFFFF" d="M34.2,3.9l0.4-0.3h0.1l0.4,0.2c0.1,0,0.1,0,0.1-0.1V3.3V3.2l0.3-0.4c0,0,0.1-0.1,0-0.1l0,0h-0.4L35,2.6
			c0,0-0.1-0.3-0.2-0.4s-0.1-0.1-0.2,0l-0.2,0.5c0,0,0,0-0.1,0l-0.4,0.1c-0.1,0-0.1,0.1-0.1,0.1l0,0l0.3,0.3v0.1L34,3.8
			c0,0-0.1,0.1,0,0.1S34.1,4,34.2,3.9L34.2,3.9z"/>
		<path fill="#FFFFFF" d="M30.8,4.2L31.2,4h0.1l0.4,0.2c0.1,0,0.1,0,0.1-0.1s0-0.3,0-0.5V3.5L32,3.1c0,0,0.1-0.1,0-0.1l0,0h-0.4
			h-0.1l-0.2-0.4c0,0-0.1-0.1-0.1,0l0,0c-0.1,0-0.1,0.2-0.2,0.4s0,0-0.1,0l-0.5,0.1c0,0-0.1,0.1,0,0.2l0,0l0.3,0.3v0.1L30.8,4.2
			C30.6,4.2,30.7,4.3,30.8,4.2z"/>
		<path fill="#FFFFFF" d="M27.2,4.7l0.4-0.3c0,0,0,0,0.1,0L28,4.5c0.1,0,0.1,0,0.1-0.1V3.9V3.8l0.3-0.4c0.1-0.1,0-0.2,0-0.2H28
			c0,0,0,0-0.1,0l-0.2-0.4c0-0.1-0.1,0-0.2,0s-0.1,0.3-0.2,0.5c0,0,0,0-0.1,0.1l-0.5,0.1c-0.1,0-0.1,0.1-0.1,0.1l0,0L27.1,4v0.1
			c0,0.2-0.1,0.3-0.1,0.5C27,4.7,27,4.7,27.2,4.7C27.1,4.7,27.2,4.7,27.2,4.7z"/>
		<path fill="#FFFFFF" d="M47.1,19.2l0.4-0.1h0.1l0.4,0.3c0,0,0.1,0.1,0.1,0c0,0,0.1-0.1,0-0.1c0-0.2,0-0.3,0-0.5c0,0,0,0,0-0.1
			l0.3-0.2c0,0,0.1-0.1,0-0.2l0,0L48,18.1c0,0,0,0-0.1-0.1c-0.1-0.2-0.1-0.3-0.2-0.5s-0.1-0.1-0.2,0s-0.2,0.3-0.2,0.4c0,0,0,0-0.1,0
			h-0.5c-0.1,0-0.1,0.1,0,0.1l0.3,0.4v0.1V19C47,19.1,47,19.2,47.1,19.2z"/>
		<path fill="#FFFFFF" d="M43.8,18.5l0.4-0.2h0.1c0.1,0.1,0.3,0.2,0.4,0.3h0.1c0,0,0,0,0-0.1V18v-0.1c0.1-0.1,0.2-0.2,0.3-0.3
			s0-0.1,0-0.2l-0.4-0.1c0,0-0.1,0-0.1-0.1c-0.1-0.2-0.1-0.3-0.2-0.5c0,0-0.1-0.1-0.1,0l0,0l-0.2,0.4c0,0,0,0-0.1,0h-0.4
			c-0.1,0-0.1,0.1-0.1,0.1l0,0l0.3,0.4v0.1l-0.1,0.5c0,0-0.1,0.1,0,0.1C43.7,18.5,43.8,18.5,43.8,18.5L43.8,18.5z"/>
		<path fill="#FFFFFF" d="M40.2,18.1l0.4-0.2h0.1l0.4,0.2h0.1c0,0,0,0,0-0.1v-0.5v-0.1l0.3-0.3c0,0,0.1-0.1,0-0.1l0,0l-0.4-0.1
			c0,0,0,0-0.1,0l-0.2-0.5c0,0-0.1-0.1-0.1,0l0,0c-0.1,0.1-0.2,0.3-0.2,0.4c0,0,0,0-0.1,0L40,17c-0.1,0-0.1,0.1-0.1,0.1l0,0l0.3,0.4
			v0.1V18.1C40.2,18.1,40.2,18.1,40.2,18.1z"/>
		<path fill="#FFFFFF" d="M36.8,18.1l0.4-0.2h0.1l0.4,0.2c0.1,0,0.1,0,0.1-0.1l0,0v-0.5v-0.1l0.3-0.4c0,0,0.1-0.1,0-0.1l0,0
			l-0.4-0.1c0,0,0,0-0.1,0c-0.1-0.1-0.1-0.3-0.2-0.4c0,0-0.1-0.1-0.1,0l0,0c-0.1,0.1-0.1,0.3-0.2,0.5c0,0,0,0.1-0.1,0.1h-0.4
			c-0.1,0-0.1,0.1-0.1,0.1l0,0l0.3,0.3v0.1V18.1C36.7,18.1,36.8,18.1,36.8,18.1z"/>
		<path fill="#FFFFFF" d="M32.9,18.3l0.4-0.3h0.1l0.4,0.2c0.1,0,0.1,0,0.1-0.1v-0.5v-0.1c0.1-0.1,0.2-0.2,0.3-0.4c0,0,0.1-0.1,0-0.1
			l0,0h-0.4c0,0,0,0-0.1,0c-0.1-0.1-0.1-0.3-0.2-0.4c0,0-0.1-0.1-0.1,0l0,0c-0.1,0.1-0.2,0.3-0.2,0.5c0,0,0,0.1-0.1,0.1l-0.5,0.1
			c0,0-0.1,0.1,0,0.2l0,0l0.3,0.3v0.1V18.3C32.8,18.3,32.9,18.3,32.9,18.3z"/>
		<path fill="#FFFFFF" d="M29.5,18.6l0.4-0.3H30l0.4,0.2c0.1,0,0.1,0,0.1-0.1v-0.5v-0.1l0.3-0.4c0-0.1,0-0.1,0-0.1h-0.4h-0.1
			c0-0.1-0.1-0.3-0.2-0.4s-0.1-0.1-0.1,0l-0.2,0.5c0,0,0,0-0.1,0.1l-0.4,0.1c-0.1,0-0.1,0.1-0.1,0.2l0.3,0.3v0.1
			C29.5,18.2,29.4,18.4,29.5,18.6C29.4,18.7,29.4,18.7,29.5,18.6z"/>
		<path fill="#FFFFFF" d="M46.2,11.7l0.4-0.1h0.1l0.4,0.3c0.1,0.1,0.1,0,0.1-0.1v-0.5v-0.1l0.3-0.3c0,0,0.1-0.1,0-0.1l0,0l-0.4-0.2
			c0,0-0.1,0-0.1-0.1L46.9,10c0-0.1-0.1-0.1-0.2,0s-0.1,0.3-0.2,0.4s0,0-0.1,0H46c-0.1,0-0.1,0.1-0.1,0.1l0.3,0.4V11l-0.1,0.5
			C46.1,11.6,46.2,11.6,46.2,11.7L46.2,11.7z"/>
		<path fill="#FFFFFF" d="M43,11.1l0.4-0.2h0.1l0.4,0.3H44c0,0,0,0,0-0.1v-0.5v-0.1l0.3-0.3c0,0,0.1-0.1,0-0.1l0,0L43.9,10
			c0,0-0.1,0-0.1-0.1c0-0.2-0.1-0.3-0.2-0.5c0,0-0.1-0.1-0.1,0l0,0l-0.2,0.4c0,0,0,0-0.1,0h-0.4c-0.1,0-0.1,0.1-0.1,0.1l0,0l0.3,0.4
			v0.1l-0.1,0.5C42.8,11,42.9,11.1,43,11.1z"/>
		<path fill="#FFFFFF" d="M39.4,10.8l0.4-0.2h0.1l0.4,0.2c0.1,0,0.1,0,0.1-0.1v-0.5v-0.1l0.3-0.3c0,0,0.1-0.1,0-0.1l0,0l-0.4-0.1
			c0,0,0,0-0.1-0.1c0-0.1-0.1-0.3-0.2-0.4C40,9,40,9,39.9,9l0,0c-0.1,0.1-0.2,0.3-0.2,0.4c0,0,0,0-0.1,0.1l-0.4,0.1
			c-0.1,0-0.1,0.1-0.1,0.1l0,0l0.3,0.3v0.1l-0.1,0.5C39.2,10.8,39.3,10.8,39.4,10.8z"/>
		<path fill="#FFFFFF" d="M35.9,10.8l0.4-0.2h0.1l0.4,0.2c0.1,0,0.1,0,0.1-0.1v-0.5v-0.1l0.3-0.4c0,0,0.1-0.1,0-0.1l0,0l-0.4-0.1
			c0,0,0,0-0.1,0l-0.2-0.4c0-0.1-0.1-0.1-0.2,0l-0.2,0.4c0,0,0,0.1-0.1,0.1l-0.4,0.1c-0.1,0-0.1,0.1-0.1,0.1l0,0l0.3,0.3v0.1
			L35.9,10.8C35.8,10.8,35.9,10.8,35.9,10.8z"/>
		<path fill="#FFFFFF" d="M32.1,11.1l0.4-0.3h0.1L33,11c0.1,0,0.1,0,0.1-0.1s0-0.3,0-0.5v-0.1l0.3-0.4c0,0,0.1-0.1,0-0.1l0,0H33
			c0,0,0,0-0.1,0l-0.2-0.4c0-0.1-0.1-0.1-0.2,0s-0.1,0.3-0.2,0.5c0,0,0,0.1-0.1,0.1h-0.4c-0.1,0-0.1,0.1-0.1,0.1l0,0l0.3,0.3v0.1
			L32.1,11.1C31.9,11.1,32,11.1,32.1,11.1z"/>
		<path fill="#FFFFFF" d="M28.6,11.5l0.4-0.3h0.1l0.4,0.2c0.1,0,0.1,0,0.1-0.1s0-0.3,0-0.5v-0.1l0.3-0.4c0-0.1,0-0.1,0-0.1h-0.4
			c0,0,0,0-0.1,0l-0.2-0.4c0-0.1-0.1-0.1-0.1,0l-0.2,0.5c0,0,0,0.1-0.1,0.1l-0.5,0.1c-0.1,0-0.1,0.1-0.1,0.1l0,0l0.3,0.3V11
			l-0.1,0.5C28.5,11.5,28.5,11.5,28.6,11.5L28.6,11.5z"/>
		<path fill="#FFFFFF" d="M45.7,15.5l0.4-0.1h0.1l0.4,0.3h0.1c0,0,0,0,0-0.1v-0.5V15l0.3-0.3c0,0,0.1-0.1,0-0.2l0,0l-0.4-0.2
			c0,0,0,0-0.1-0.1c0-0.2-0.1-0.3-0.2-0.5s-0.1-0.1-0.2,0S46,14.1,46,14.2c0,0,0,0-0.1,0h-0.4c0,0-0.1,0-0.1,0.1c0,0,0,0,0,0.1
			l0.3,0.4v0.1C45.7,15,45.6,15.2,45.7,15.5C45.6,15.6,45.6,15.5,45.7,15.5z"/>
		<path fill="#FFFFFF" d="M42.4,15l0.4-0.2h0.1l0.4,0.3h0.1c0,0,0,0,0-0.1v-0.5v-0.1l0.3-0.3c0,0,0.1-0.1,0-0.1l0,0l-0.4-0.1
			c0,0-0.1,0-0.1-0.1c-0.1-0.1-0.1-0.3-0.2-0.5c0,0-0.1-0.1-0.1,0l0,0c-0.1,0.1-0.1,0.3-0.2,0.4c0,0,0,0-0.1,0h-0.4
			c-0.1,0-0.1,0.1-0.1,0.1l0,0l0.3,0.4v0.1c0,0.2-0.1,0.3-0.1,0.5c0,0-0.1,0.1,0,0.1S42.3,15,42.4,15z"/>
		<path fill="#FFFFFF" d="M38.8,14.7l0.4-0.2h0.1l0.4,0.2c0.1,0,0.1,0,0.1-0.1s0-0.3,0-0.5V14l0.3-0.3c0,0,0.1-0.1,0-0.1l0,0
			l-0.4-0.1c0,0,0,0-0.1,0c-0.1-0.1-0.1-0.3-0.2-0.4c0,0-0.1-0.1-0.1,0l0,0l-0.2,0.4c0,0,0,0-0.1,0.1l-0.4,0.1
			c-0.1,0-0.1,0.1-0.1,0.1l0,0l0.3,0.3v0.1V14.7C38.7,14.7,38.7,14.7,38.8,14.7z"/>
		<path fill="#FFFFFF" d="M35.3,14.8l0.4-0.3c0,0,0,0,0.1,0l0.4,0.2c0.1,0,0.1,0,0.1-0.1l0,0v-0.5V14l0.3-0.4c0.1-0.1,0-0.1,0-0.1
			l-0.4-0.1c0,0,0,0-0.1,0C36,13.3,36,13.1,35.9,13s-0.1-0.1-0.2,0s-0.1,0.3-0.2,0.5c0,0,0,0-0.1,0.1l-0.5,0.1
			c-0.1,0-0.1,0.1-0.1,0.1l0,0c0.1,0.1,0.2,0.2,0.3,0.3v0.1C35.3,14.4,35.3,14.6,35.3,14.8L35.3,14.8z"/>
		<path fill="#FFFFFF" d="M31.5,15.1l0.4-0.3H32l0.4,0.2c0.1,0,0.1,0,0.1-0.1v-0.5v-0.1l0.3-0.4c0,0,0.1-0.1,0-0.1l0,0h-0.4
			c0,0,0,0-0.1,0l-0.2-0.4c0-0.1-0.1-0.1-0.1,0s-0.1,0.3-0.2,0.5s0,0.1-0.1,0.1h-0.4c-0.1,0-0.1,0.1-0.1,0.1l0,0l0.3,0.3v0.1
			L31.5,15.1C31.3,15.1,31.4,15.1,31.5,15.1z"/>
		<path fill="#FFFFFF" d="M28,15.5l0.4-0.3h0.1l0.4,0.2c0.1,0,0.1,0,0.1-0.1v-0.5v-0.1l0.3-0.4c0-0.1,0-0.2,0-0.2h-0.4
			c0,0,0,0-0.1,0l-0.2-0.4c0-0.1-0.1,0-0.1,0l-0.2,0.5c0,0,0,0.1-0.1,0.1l-0.4,0.1c-0.1,0-0.1,0.1-0.1,0.1l0,0l0.3,0.3v0.1L28,15.5
			C27.9,15.5,28,15.5,28,15.5z"/>
		<path fill="#FFFFFF" d="M44.8,7.7l0.4-0.2h0.1l0.4,0.3h0.1c0,0,0,0,0-0.1V7.2c0,0,0,0,0-0.1l0.3-0.3c0,0,0.1-0.1,0-0.2l0,0
			l-0.4-0.2c0,0-0.1,0-0.1-0.1c0-0.2-0.1-0.3-0.2-0.5c0,0-0.1-0.1-0.1,0l0,0c-0.1,0.1-0.2,0.3-0.2,0.4c0,0,0,0-0.1,0h-0.4
			c0,0-0.1,0-0.1,0.1c0,0,0,0,0,0.1L44.8,7v0.1V7.7C44.7,7.7,44.8,7.7,44.8,7.7z"/>
		<path fill="#FFFFFF" d="M41.2,7.2L41.6,7h0.1l0.4,0.2h0.1c0,0,0,0,0-0.1V6.7V6.6l0.3-0.3c0,0,0.1-0.1,0-0.1l0,0L42.1,6H42
			l-0.2-0.5c0,0-0.1-0.1-0.1,0l0,0L41.5,6c0,0,0,0-0.1,0H41c-0.1,0-0.1,0.1-0.1,0.1l0,0l0.3,0.4v0.1V7.2C41.1,7.2,41.2,7.3,41.2,7.2
			z"/>
		<path fill="#FFFFFF" d="M37.8,7.1l0.4-0.2h0.1l0.4,0.2c0.1,0,0.1,0,0.1-0.1l0,0V6.5V6.4l0.3-0.3c0,0,0.1-0.1,0-0.1l0,0l-0.4-0.1
			c0,0,0,0-0.1,0l-0.2-0.4c0-0.1-0.1-0.1-0.2,0L38,5.8c0,0,0,0-0.1,0L37.5,6c-0.1,0-0.1,0.1-0.1,0.1l0,0l0.3,0.3v0.1L37.6,7
			C37.7,7.1,37.7,7.1,37.8,7.1L37.8,7.1z"/>
		<path fill="#FFFFFF" d="M33.9,7.3L34.3,7h0.1l0.4,0.2c0.1,0,0.1,0,0.1-0.1l0,0V6.6V6.5l0.3-0.4c0.1-0.1,0-0.2,0-0.2h-0.4
			c0,0,0,0-0.1,0c-0.1-0.2-0.1-0.3-0.2-0.4s-0.1-0.1-0.2,0s0,0.4-0.1,0.5c0,0,0,0.1-0.1,0.1l-0.4,0.1c-0.1,0-0.1,0.1-0.1,0.1l0,0
			l0.3,0.3v0.1V7.3L33.9,7.3z"/>
		<path fill="#FFFFFF" d="M30.5,7.6l0.4-0.3H31l0.4,0.2c0.1,0,0.1,0,0.1-0.1V6.9V6.8c0.1-0.1,0.2-0.3,0.3-0.4s0-0.2,0-0.2h-0.4
			c0,0,0,0-0.1,0l-0.2-0.4c0,0-0.1-0.1-0.1,0l0,0l-0.2,0.5c0,0,0,0-0.1,0.1l-0.5,0.1c-0.1,0-0.1,0.1-0.1,0.1l0,0L30.5,7v0.1
			C30.5,7.2,30.5,7.4,30.5,7.6C30.4,7.7,30.4,7.6,30.5,7.6z"/>
		<path fill="#FFFFFF" d="M25.9,19.1l0.4-0.3h0.1l0.4,0.2c0.1,0,0.1,0,0.1-0.1v-0.5v-0.1l0.3-0.4c0-0.1,0-0.1,0-0.1h-0.4
			c0,0,0,0-0.1,0l-0.2-0.4c0-0.1-0.1,0-0.1,0l-0.2,0.5c0,0,0,0-0.1,0.1l-0.5,0c-0.1,0-0.1,0.1-0.1,0.1l0,0l0.3,0.3v0.1L25.7,19
			C25.8,19.1,25.9,19.1,25.9,19.1z"/>
		<path fill="#8C6239" d="M45.4,80.6L45.4,80.6c0.7,0,1.2-0.5,1.2-1.2l6.1-75.8c0.1-0.6-0.4-1.2-1-1.3l0,0c-0.7,0-1.2,0.5-1.2,1.2
			l-6.2,75.8C44.3,79.9,44.7,80.5,45.4,80.6L45.4,80.6z"/>
	</g>
</g>
</svg>
