<?xml version="1.0" encoding="utf-8"?>
<!-- Generator: Adobe Illustrator 24.1.0, SVG Export Plug-In . SVG Version: 6.00 Build 0)  -->
<svg version="1.1" id="圖層_1" xmlns="http://www.w3.org/2000/svg" xmlns:xlink="http://www.w3.org/1999/xlink" x="0px" y="0px"
	 viewBox="0 0 57.3 78.2" enable-background="new 0 0 57.3 78.2" xml:space="preserve">
<g id="圖層_2_1_">
	<g id="圖層_1-2">
		<path fill="#FFFFFF" d="M53.5,42c-16-5.8-32,3.5-48-4.8C6.8,25.4,8.1,13.5,9.4,1.5c16,5.8,32-3.5,48,4.8
			C56.1,18.2,54.8,30.1,53.5,42z"/>
		<path fill="#C1272D" d="M57,9.1C41,0.9,25,10.3,9,4.3c0.1-0.9,0.2-1.8,0.3-2.8c16,5.8,32-3.5,48,4.8C57.2,7.3,57.1,8.2,57,9.1z"/>
		<path fill="#C1272D" d="M56.5,14.5c-16-7.8-32,1.6-48-4.7C8.5,8.9,8.6,8,8.7,7c16,6.2,32-3.2,48,4.8
			C56.7,12.7,56.5,13.6,56.5,14.5z"/>
		<path fill="#C1272D" d="M55.9,20c-16-7.3-32,2-48-4.7c0.1-0.9,0.2-1.8,0.3-2.8c16,6.5,32-2.8,48,4.7C56.1,18.2,56,19.1,55.9,20z"
			/>
		<path fill="#C1272D" d="M55.3,25.5c-16-6.9-32,2.4-48-4.7c0.1-0.9,0.2-1.8,0.3-2.8c16,6.9,32-2.4,48,4.7
			C55.5,23.7,55.4,24.6,55.3,25.5z"/>
		<path fill="#C1272D" d="M54.7,31c-16-6.5-32,2.8-48-4.7c0.1-0.9,0.2-1.8,0.3-2.7c16,7.3,32-2,48,4.7C54.9,29.2,54.8,30.1,54.7,31z
			"/>
		<path fill="#C1272D" d="M54.1,36.5c-16-6.2-32,3.2-48-4.8L6.4,29c16,7.8,32-1.6,48,4.7C54.3,34.7,54.2,35.6,54.1,36.5z"/>
		<path fill="#C1272D" d="M53.5,42c-16-5.8-32,3.5-48-4.8c0.1-0.9,0.2-1.8,0.3-2.7c16,8.2,32-1.2,48,4.8
			C53.7,40.2,53.6,41.1,53.5,42z"/>
		<path fill="#1B1464" d="M32.8,23.1c-8.5,0.6-17,1.5-25.5-2.3C8,14.4,8.7,8,9.3,1.5c8.5,3.1,17,1.9,25.5,1.3L32.8,23.1z"/>
		<path fill="#FFFFFF" d="M11.5,6l-0.4-0.3c0,0-0.1,0-0.1,0l-0.4,0.1c-0.1,0-0.1-0.1-0.1-0.1c0,0,0,0,0,0c0-0.2,0.1-0.3,0.1-0.4
			c0,0,0-0.1,0-0.1l-0.3-0.4c0-0.1,0-0.2,0.1-0.1l0.4,0.1c0,0,0,0,0.1,0c0.1-0.1,0.2-0.2,0.2-0.4s0.1,0,0.1,0s0.1,0.3,0.1,0.5
			c0,0,0,0.1,0.1,0.1L12,5c0,0,0.1,0.1,0,0.1c0,0,0,0,0,0l-0.4,0.2c0,0,0,0,0,0.1V6c0,0.1,0,0.1-0.1,0.1S11.5,6.1,11.5,6z"/>
		<path fill="#FFFFFF" d="M14.7,6.8l-0.4-0.3c0,0,0,0-0.1,0l-0.4,0.1c-0.1,0-0.1-0.1-0.1-0.1L13.9,6c0,0,0-0.1,0-0.1l-0.3-0.4
			c0,0,0-0.1,0-0.1c0,0,0,0,0.1,0h0.4c0,0,0,0,0.1,0L14.4,5c0,0,0.1-0.1,0.1,0c0,0,0,0,0,0l0.1,0.5c0,0,0,0,0,0.1l0.4,0.2
			c0,0,0.1,0.1,0,0.1c0,0,0,0,0,0l-0.4,0.3c0,0,0,0,0,0.1L14.7,6.8C14.9,6.8,14.8,6.8,14.7,6.8z"/>
		<path fill="#FFFFFF" d="M18.3,7.2l-0.4-0.3c0,0-0.1,0-0.1,0l-0.4,0.2c-0.1,0-0.1,0-0.1-0.1l0.1-0.5c0,0,0-0.1,0-0.1l-0.3-0.4
			c0,0,0-0.1,0-0.1c0,0,0,0,0.1,0h0.4c0,0,0,0,0.1,0L18,5.4c0,0,0.1-0.1,0.1,0c0,0,0,0,0,0l0.1,0.5c0,0,0,0.1,0.1,0.1l0.4,0.1
			c0.1,0,0.1,0.1,0,0.2l-0.4,0.3c0,0,0,0.1,0,0.1v0.5C18.4,7.2,18.4,7.2,18.3,7.2C18.3,7.2,18.3,7.2,18.3,7.2z"/>
		<path fill="#FFFFFF" d="M21.7,7.4l-0.4-0.2c0,0-0.1,0-0.1,0l-0.4,0.2c-0.1,0-0.1,0-0.1-0.1l0.1-0.5c0,0,0-0.1,0-0.1l-0.3-0.4
			c0-0.1,0-0.1,0-0.1c0,0,0,0,0,0h0.4c0,0,0,0,0.1,0s0.2-0.3,0.2-0.4c0,0,0.1-0.1,0.1,0c0,0,0,0,0,0l0.1,0.4c0,0,0,0.1,0.1,0.1
			l0.4,0.1c0,0,0.1,0.1,0,0.1c0,0,0,0,0,0l-0.4,0.3c0,0,0,0.1,0,0.1v0.5C21.8,7.4,21.8,7.4,21.7,7.4C21.7,7.4,21.7,7.4,21.7,7.4z"/>
		<path fill="#FFFFFF" d="M25.5,7.3l-0.4-0.2c0,0-0.1,0-0.1,0l-0.4,0.2c0,0-0.1,0-0.1,0s0-0.1,0-0.1l0.1-0.5c0,0,0-0.1,0-0.1
			c-0.1-0.1-0.2-0.2-0.3-0.3c0-0.1,0-0.1,0.1-0.2c0,0,0,0,0,0L24.9,6c0,0,0,0,0.1,0c0.1-0.2,0.2-0.3,0.2-0.4s0.1-0.1,0.1,0L25.5,6
			c0,0,0,0,0.1,0L26,6.1c0.1,0,0.1,0.1,0,0.2l-0.4,0.3c0,0,0,0.1,0,0.1v0.5C25.7,7.3,25.6,7.3,25.5,7.3z"/>
		<path fill="#FFFFFF" d="M29,7.1l-0.4-0.2c0,0-0.1,0-0.1,0l-0.4,0.2c0,0-0.1,0-0.1,0c0,0,0-0.1,0-0.1l0,0l0.1-0.5c0,0,0-0.1,0-0.1
			l-0.3-0.3c0,0,0-0.1,0.1-0.1l0.4-0.1c0,0,0,0,0.1,0l0.2-0.5c0-0.1,0.1-0.1,0.1,0s0.1,0.3,0.1,0.4c0,0,0,0,0.1,0l0.4,0.1
			c0.1,0,0.1,0.1,0,0.2l-0.4,0.4c0,0,0,0.1,0,0.1L29,7.1C29.1,7.1,29,7.1,29,7.1z"/>
		<path fill="#FFFFFF" d="M32.5,6.8l-0.4-0.2c0,0-0.1,0-0.1,0l-0.4,0.2c-0.1,0-0.1,0-0.1-0.1s0.1-0.3,0.1-0.5s0-0.1,0-0.1l-0.3-0.3
			c0,0,0-0.1,0-0.2c0,0,0,0,0,0l0.5-0.1c0,0,0,0,0.1,0l0.2-0.5c0-0.1,0.1-0.1,0.2,0s0.1,0.3,0.1,0.4c0,0,0,0,0.1,0H33
			c0,0,0.1,0.1,0,0.1c0,0,0,0,0,0l-0.4,0.4c0,0,0,0.1,0,0.1v0.5c0,0,0.1,0.1,0,0.1C32.6,6.9,32.6,6.9,32.5,6.8z"/>
		<path fill="#FFFFFF" d="M10.1,20l-0.4-0.4H9.7l-0.4,0.1c-0.1,0-0.1-0.1-0.1-0.1l0.1-0.4c0,0,0-0.1,0-0.1L9,18.5
			c0-0.1,0-0.1,0.1-0.1l0.4,0.1c0,0,0,0,0.1,0l0.2-0.4c0-0.1,0.1,0,0.1,0.1l0.1,0.5c0,0,0,0,0,0.1l0.4,0.2c0.1,0,0.1,0.1,0,0.2
			l-0.4,0.2c0,0,0,0,0,0.1L10.1,20C10.2,20,10.2,20,10.1,20z"/>
		<path fill="#FFFFFF" d="M13.4,20.9l-0.4-0.3c0,0-0.1,0-0.1,0l-0.4,0.1c-0.1,0-0.1-0.1-0.1-0.1l0.1-0.5c0,0,0-0.1,0-0.1l-0.3-0.4
			c0-0.1,0-0.2,0.1-0.1l0.4,0c0,0,0,0,0.1,0l0.2-0.4c0,0,0.1-0.1,0.1,0c0,0,0,0,0,0l0.1,0.5c0,0,0,0.1,0.1,0.1l0.4,0.2
			c0,0,0.1,0.1,0,0.1c0,0,0,0,0,0l-0.4,0.3c0,0,0,0.1,0,0.1v0.5c0,0,0,0.1-0.1,0.1S13.4,20.9,13.4,20.9L13.4,20.9z"/>
		<path fill="#FFFFFF" d="M17,21.4l-0.4-0.3c0,0-0.1,0-0.1,0l-0.4,0.2c-0.1,0-0.1,0-0.1-0.1s0.1-0.3,0.1-0.5c0,0,0-0.1,0-0.1
			l-0.3-0.4c0-0.1,0-0.1,0.1-0.1h0.4c0,0,0,0,0.1,0s0.2-0.3,0.2-0.4c0,0,0.1-0.1,0.1,0c0,0,0,0,0,0l0.1,0.5c0,0,0,0.1,0.1,0.1
			l0.4,0.1c0,0,0.1,0.1,0,0.1c0,0,0,0,0,0l-0.4,0.3c0,0,0,0.1,0,0.1v0.5c0,0,0,0.1,0,0.1S17,21.5,17,21.4z"/>
		<path fill="#FFFFFF" d="M20.4,21.7L20,21.4c0,0,0,0-0.1,0l-0.4,0.2c-0.1,0-0.1,0-0.1-0.1l0.1-0.5c0,0,0-0.1,0-0.1l-0.3-0.4
			c0,0,0-0.1,0-0.1c0,0,0,0,0,0h0.5c0,0,0,0,0.1,0l0.2-0.4c0,0,0.1-0.1,0.1,0c0,0,0,0,0,0l0.1,0.5c0,0,0,0,0,0.1l0.4,0.1
			c0,0,0.1,0.1,0,0.1c0,0,0,0,0,0l-0.4,0.3c0,0,0,0.1,0,0.1C20.5,21.3,20.5,21.5,20.4,21.7C20.5,21.8,20.5,21.7,20.4,21.7z"/>
		<path fill="#FFFFFF" d="M24.2,21.7l-0.4-0.2c0,0-0.1,0-0.1,0l-0.4,0.2c-0.1,0-0.1,0-0.1-0.1l0.1-0.5c0,0,0-0.1,0-0.1l-0.3-0.4
			c0,0,0-0.1,0-0.1c0,0,0,0,0,0l0.5-0.1c0,0,0,0,0.1,0L24,20c0-0.1,0.1-0.1,0.1,0l0.1,0.4c0,0,0,0.1,0.1,0l0.4,0.1
			c0.1,0,0.1,0.1,0,0.2l-0.4,0.3c0,0,0,0.1,0,0.1v0.5C24.4,21.7,24.4,21.7,24.2,21.7C24.3,21.7,24.3,21.7,24.2,21.7z"/>
		<path fill="#FFFFFF" d="M27.6,21.5l-0.4-0.2c0,0,0,0-0.1,0l-0.4,0.2c-0.1,0-0.1,0-0.1-0.1l0.1-0.5c0,0,0-0.1,0-0.1
			c-0.1-0.1-0.2-0.2-0.3-0.3c0-0.1,0-0.1,0.1-0.2c0,0,0,0,0,0l0.4-0.1c0,0,0.1,0,0.1,0l0.2-0.5c0-0.1,0.1-0.1,0.1,0l0.1,0.4
			c0,0,0,0,0,0l0.4,0c0.1,0,0.1,0.1,0,0.2l-0.4,0.4c0,0,0,0.1,0,0.1v0.5C27.8,21.5,27.7,21.6,27.6,21.5z"/>
		<path fill="#FFFFFF" d="M12.3,13.3L12,12.9c0,0,0,0-0.1,0L11.5,13c-0.1,0-0.1-0.1-0.1-0.1s0.1-0.3,0.1-0.4c0,0,0-0.1,0-0.1
			l-0.3-0.4c0-0.1,0-0.1,0.1-0.1l0.4,0.1c0,0,0,0,0.1,0l0.2-0.4c0-0.1,0.1,0,0.2,0.1l0.1,0.5c0,0,0,0,0,0.1l0.4,0.2
			c0,0,0.1,0.1,0,0.2c0,0,0,0,0,0l-0.4,0.2c0,0,0,0.1,0,0.1v0.5C12.4,13.3,12.4,13.3,12.3,13.3z"/>
		<path fill="#FFFFFF" d="M15.6,13.9l-0.4-0.3c0,0-0.1,0-0.1,0l-0.4,0.1c-0.1,0-0.1,0-0.1-0.1c0,0,0,0,0,0l0.1-0.5c0,0,0-0.1,0-0.1
			l-0.3-0.4c0-0.1,0-0.2,0.1-0.1H15c0,0,0,0,0.1,0c0.1-0.1,0.2-0.3,0.2-0.4c0,0,0.1-0.1,0.1,0c0,0,0,0,0,0l0.1,0.5
			c0,0,0,0.1,0.1,0.1l0.4,0.1c0,0,0.1,0.1,0,0.1c0,0,0,0,0,0l-0.4,0.3c0,0,0,0,0,0.1v0.5C15.7,13.9,15.7,13.9,15.6,13.9
			C15.6,13.9,15.6,13.9,15.6,13.9z"/>
		<path fill="#FFFFFF" d="M19.1,14.3L18.8,14c0,0-0.1,0-0.1,0l-0.4,0.2c0,0-0.1,0-0.1-0.1c0,0,0,0,0,0l0.1-0.5c0,0,0-0.1,0-0.1
			L18,13.2c0,0,0-0.1,0-0.1c0,0,0,0,0.1,0h0.5c0,0,0,0,0.1,0c0.1-0.1,0.2-0.3,0.2-0.4c0,0,0.1-0.1,0.1,0c0,0,0,0,0,0l0.1,0.5
			c0,0,0,0.1,0.1,0.1l0.4,0.1c0,0,0.1,0.1,0,0.1c0,0,0,0,0,0l-0.4,0.3c0,0,0,0.1,0,0.1L19.1,14.3C19.3,14.3,19.2,14.3,19.1,14.3z"/>
		<path fill="#FFFFFF" d="M22.6,14.4l-0.4-0.2c0,0-0.1,0-0.1,0l-0.4,0.2c-0.1,0-0.1,0-0.1-0.1s0.1-0.3,0.1-0.5c0,0,0-0.1,0-0.1
			l-0.3-0.4c0-0.1,0-0.1,0-0.1c0,0,0,0,0,0l0.4-0.1c0,0,0,0,0.1,0l0.2-0.4c0-0.1,0.1-0.1,0.1,0l0.1,0.4c0,0,0,0.1,0.1,0.1l0.4,0.1
			c0.1,0,0.1,0.1,0,0.2l-0.4,0.3c0,0,0,0.1,0,0.1c0,0.2,0,0.3,0,0.5S22.6,14.4,22.6,14.4z"/>
		<path fill="#FFFFFF" d="M26.4,14.3L26,14.1c0,0-0.1,0-0.1,0l-0.4,0.2c-0.1,0-0.1,0-0.1-0.1l0.1-0.5c0,0,0-0.1,0-0.1l-0.3-0.3
			c0,0,0-0.1,0-0.1c0,0,0,0,0,0l0.4-0.1h0.1c0.1-0.1,0.2-0.3,0.2-0.4c0,0,0.1-0.1,0.1,0c0,0,0,0,0,0l0.1,0.4c0,0,0,0,0,0l0.4,0.1
			c0.1,0,0.1,0.1,0,0.2l-0.4,0.4c0,0,0,0.1,0,0.1v0.5C26.5,14.2,26.5,14.3,26.4,14.3z"/>
		<path fill="#FFFFFF" d="M29.8,14.1l-0.4-0.2c0,0-0.1,0-0.1,0L29,14.1c-0.1,0-0.1,0-0.1-0.1l0.1-0.5c0,0,0-0.1,0-0.1l-0.3-0.3
			c0-0.1,0-0.1,0.1-0.2c0,0,0,0,0,0l0.4-0.1c0,0,0.1,0,0.1-0.1l0.2-0.4c0-0.1,0.1-0.1,0.1,0s0.1,0.3,0.1,0.4c0,0,0,0.1,0.1,0.1h0.4
			c0.1,0,0.1,0.1,0,0.2L30,13.3c0,0,0,0.1,0,0.1l0,0.6C30,14,29.9,14.1,29.8,14.1z"/>
		<path fill="#FFFFFF" d="M12.2,17.2l-0.4-0.3c0,0,0,0-0.1,0L11.3,17c-0.1,0-0.1-0.1-0.1-0.1s0.1-0.3,0.1-0.5c0,0,0-0.1,0-0.1
			c-0.1-0.1-0.2-0.3-0.3-0.4c-0.1-0.1,0-0.2,0.1-0.1l0.4,0.1c0,0,0,0,0.1,0l0.2-0.4c0-0.1,0.1,0,0.2,0l0.1,0.5c0,0,0,0.1,0.1,0.1
			l0.4,0.2c0,0,0.1,0.1,0,0.2c0,0,0,0,0,0l-0.4,0.2c0,0,0,0,0,0.1v0.5C12.3,17.2,12.2,17.3,12.2,17.2z"/>
		<path fill="#FFFFFF" d="M15.5,17.9l-0.4-0.3c0,0-0.1,0-0.1,0l-0.4,0.1c-0.1,0-0.1,0-0.1-0.1c0,0,0,0,0,0c0.1-0.2,0.1-0.3,0.1-0.5
			c0,0,0-0.1,0-0.1l-0.3-0.4c0-0.1,0-0.2,0.1-0.1h0.4c0,0,0,0,0.1,0c0.1-0.1,0.2-0.3,0.2-0.4c0,0,0.1-0.1,0.1,0c0,0,0,0,0,0l0.1,0.5
			c0,0,0,0.1,0.1,0.1l0.4,0.1c0.1,0,0.1,0,0.1,0.1c0,0.1,0,0.1-0.1,0.1l-0.4,0.3c0,0,0,0.1,0,0.1v0.5C15.6,17.9,15.6,18,15.5,17.9
			C15.5,18,15.5,17.9,15.5,17.9L15.5,17.9z"/>
		<path fill="#FFFFFF" d="M19,18.3L18.7,18c0,0-0.1,0-0.1,0l-0.4,0.2c-0.1,0-0.1,0-0.1-0.1s0.1-0.3,0.1-0.5c0,0,0-0.1,0-0.1
			l-0.3-0.4c0,0,0-0.1,0-0.1c0,0,0,0,0,0h0.5c0,0,0,0,0.1,0c0.1-0.1,0.2-0.3,0.2-0.4s0.1-0.1,0.1,0L19,17c0,0,0,0.1,0.1,0.1l0.4,0.1
			c0,0,0.1,0.1,0,0.1c0,0,0,0,0,0l-0.4,0.3c0,0,0,0.1,0,0.1v0.5C19.2,18.3,19.1,18.3,19,18.3z"/>
		<path fill="#FFFFFF" d="M22.4,18.4l-0.4-0.2c0,0-0.1,0-0.1,0l-0.4,0.2c-0.1,0-0.1,0-0.1-0.1l0.1-0.5c0,0,0-0.1,0-0.1l-0.3-0.4
			c0-0.1,0-0.1,0-0.1c0,0,0,0,0,0l0.4,0c0,0,0.1,0,0.1,0l0.2-0.4c0,0,0.1-0.1,0.1,0c0,0,0,0,0,0c0,0.1,0.1,0.3,0.1,0.5
			c0,0,0,0,0.1,0l0.4,0.1c0.1,0,0.1,0.1,0,0.2s-0.2,0.2-0.4,0.3c0,0,0,0.1,0,0.1v0.5C22.6,18.4,22.5,18.4,22.4,18.4z"/>
		<path fill="#FFFFFF" d="M26.3,18.3L25.9,18c0,0-0.1,0-0.1,0l-0.4,0.2c-0.1,0-0.1,0-0.1-0.1s0.1-0.3,0.1-0.5c0,0,0-0.1,0-0.1
			l-0.3-0.3c0,0,0-0.1,0-0.2c0,0,0,0,0,0l0.5-0.1c0,0,0.1,0,0.1-0.1c0.1-0.1,0.2-0.3,0.2-0.5c0,0,0.1-0.1,0.1,0c0,0,0,0,0,0l0.1,0.4
			c0,0,0,0,0,0l0.4,0.1c0.1,0,0.1,0.1,0,0.2l-0.4,0.4c0,0,0,0.1,0,0.1v0.5C26.4,18.2,26.3,18.3,26.3,18.3z"/>
		<path fill="#FFFFFF" d="M29.7,18.1l-0.4-0.2c0,0-0.1,0-0.1,0l-0.4,0.2c-0.1,0-0.1,0-0.1-0.1s0.1-0.3,0.1-0.5c0,0,0-0.1,0-0.1
			c-0.1-0.1-0.2-0.2-0.3-0.3c0-0.1,0-0.1,0-0.1c0,0,0,0,0,0l0.4-0.1c0,0,0.1,0,0.1-0.1l0.2-0.5c0-0.1,0.1-0.1,0.1,0l0.1,0.4
			c0,0,0,0,0.1,0l0.4,0c0.1,0,0.1,0.1,0,0.2l-0.4,0.4c0,0,0,0.1,0,0.1c0,0.2,0,0.3,0,0.5S29.8,18.1,29.7,18.1z"/>
		<path fill="#FFFFFF" d="M14.4,10L14,9.7c0,0,0,0-0.1,0l-0.4,0.1c-0.1,0-0.1-0.1-0.1-0.1l0.1-0.5c0,0,0-0.1,0-0.1l-0.3-0.4
			c0,0,0-0.1,0-0.1c0,0,0,0,0.1,0h0.4c0,0,0,0,0.1,0l0.2-0.4c0-0.1,0.1-0.1,0.2,0s0.1,0.3,0.1,0.5c0,0,0,0,0,0.1L14.8,9
			c0,0,0.1,0.1,0,0.1c0,0,0,0,0,0l-0.4,0.3c0,0,0,0.1,0,0.1L14.4,10C14.5,10.1,14.4,10.1,14.4,10z"/>
		<path fill="#FFFFFF" d="M18,10.5l-0.4-0.3c0,0-0.1,0-0.1,0l-0.4,0.2c0,0-0.1,0-0.1-0.1c0,0,0,0,0-0.1l0.1-0.5c0,0,0-0.1,0-0.1
			l-0.3-0.4c0,0,0-0.1,0-0.1c0,0,0,0,0,0h0.4c0,0,0.1,0,0.1-0.1l0.2-0.4c0,0,0.1-0.1,0.1,0c0,0,0,0,0,0L18,9.2c0,0,0,0.1,0.1,0.1
			l0.4,0.1c0,0,0.1,0.1,0,0.1c0,0,0,0,0,0l-0.4,0.3c0,0,0,0.1,0,0.1v0.5C18.1,10.5,18.1,10.5,18,10.5C18,10.5,18,10.5,18,10.5z"/>
		<path fill="#FFFFFF" d="M21.4,10.7L21,10.5c0,0-0.1,0-0.1,0l-0.4,0.2c-0.1,0-0.1,0-0.1-0.1l0.1-0.5c0,0,0-0.1,0-0.1l-0.3-0.4
			c0-0.1,0-0.1,0-0.1c0,0,0,0,0,0h0.4c0,0,0,0,0.1,0C20.9,9.3,21,9.2,21.1,9s0.1-0.1,0.1,0s0.1,0.3,0.1,0.4c0,0,0,0.1,0.1,0.1
			l0.4,0.1c0,0,0.1,0.1,0,0.1c0,0,0,0,0,0l-0.4,0.3c0,0,0,0.1,0,0.1v0.5C21.5,10.7,21.4,10.7,21.4,10.7z"/>
		<path fill="#FFFFFF" d="M25.2,10.7l-0.4-0.2h-0.1l-0.4,0.2c-0.1,0-0.1,0-0.1-0.1s0.1-0.3,0.1-0.5c0,0,0-0.1,0-0.1
			c-0.1-0.1-0.2-0.2-0.3-0.3c0-0.1,0-0.1,0-0.1c0,0,0,0,0,0l0.4-0.1c0,0,0.1,0,0.1-0.1c0.1-0.1,0.2-0.3,0.2-0.4s0.1-0.1,0.1,0
			s0.1,0.3,0.1,0.4c0,0,0,0,0.1,0.1l0.4,0.1c0.1,0,0.1,0.1,0,0.2L25.4,10c0,0,0,0.1,0,0.1v0.5C25.4,10.6,25.3,10.7,25.2,10.7z"/>
		<path fill="#FFFFFF" d="M28.6,10.5l-0.4-0.2h-0.1l-0.4,0.2c-0.1,0-0.1,0-0.1-0.1l0.1-0.5c0,0,0-0.1,0-0.1l-0.3-0.3
			c0-0.1,0-0.1,0-0.2c0,0,0,0,0,0L28,9.2c0,0,0.1,0,0.1-0.1c0.1-0.1,0.2-0.3,0.2-0.4s0.1-0.1,0.1,0l0.1,0.4c0,0,0,0.1,0.1,0.1h0.4
			c0.1,0,0.1,0.1,0,0.2l-0.4,0.4c0,0,0,0.1,0,0.1v0.5C28.8,10.4,28.7,10.4,28.6,10.5C28.7,10.5,28.7,10.5,28.6,10.5z"/>
		<path fill="#FFFFFF" d="M31.2,21.3l-0.4-0.2c0,0-0.1,0-0.1,0l-0.4,0.2c0,0-0.1,0-0.1,0c0,0,0,0,0-0.1l0.1-0.5c0,0,0-0.1,0-0.1
			l-0.3-0.3c0-0.1,0-0.1,0-0.1c0,0,0,0,0,0l0.4-0.1c0,0,0,0,0.1,0c0.1-0.1,0.2-0.3,0.2-0.5s0.1-0.1,0.1,0s0.1,0.3,0.1,0.4
			c0,0,0,0.1,0.1,0l0.4,0c0.1,0,0.1,0.1,0,0.2l-0.4,0.4c0,0,0,0.1,0,0.1v0.5C31.4,21.3,31.3,21.3,31.2,21.3z"/>
		<path fill="#8C6239" d="M1,78.2L1,78.2c-0.7-0.1-1.1-0.7-1-1.4L7.6,1.1C7.6,0.5,8.2,0,8.8,0c0,0,0,0,0,0l0,0
			c0.7,0.1,1.1,0.7,1,1.4L2.3,77.1C2.3,77.7,1.7,78.2,1,78.2C1.1,78.2,1,78.2,1,78.2z"/>
	</g>
</g>
</svg>
