<svg xmlns="http://www.w3.org/2000/svg" viewBox="0 0 135.49 105.85"><defs><style>.cls-1{fill:#e6e6e6;}</style></defs><title>資產 31</title><g id="圖層_2" data-name="圖層 2"><g id="圖層_1-2" data-name="圖層 1"><path class="cls-1" d="M119.42,63a11.35,11.35,0,0,1-.37,15.16c-4,4.41-11.58,6.83-18.72,6C94.6,89.08,94,98.67,85.12,99a38.55,38.55,0,0,1-6.22-.75c-12.19-1.55-22.53,7.25-34.85,7.58-11.66.3-22.21-8.69-20.15-17.18-1.46,1.9-5.23,2.19-7.88,1.16a13.66,13.66,0,0,1-5.84-4.91C-1.91,69-3.33,49,6.45,32.5c2.12-3.58,5.16-7.27,10.18-8.5s11.87,1.73,11,5.59Q39.86,16.14,53.16,3.24c2.19-2.12,6.23-4.4,8.94-2.57,1.26.84,1.47,2.22,1.61,3.47l1,9.59q20-1.75,40.14-1.89c3.29,0,6.95.1,9.32,1.81,3.46,2.49,2.21,6.66,1.22,10.12s-.59,8.11,4,9.26c5.16,1.32,12.42-2.94,15.37.48a4.32,4.32,0,0,1,.74,3.19c-.39,9.61-3.06,21.53-15.5,24.14"/></g></g></svg>