<?xml version="1.0" encoding="utf-8"?>
<!-- Generator: Adobe Illustrator 24.1.0, SVG Export Plug-In . SVG Version: 6.00 Build 0)  -->
<svg version="1.1" id="圖層_1" xmlns="http://www.w3.org/2000/svg" xmlns:xlink="http://www.w3.org/1999/xlink" x="0px" y="0px"
	 viewBox="0 0 133.4 101.7" enable-background="new 0 0 133.4 101.7" xml:space="preserve">
<g id="圖層_2_1_">
	<g id="圖層_1-2">
		<path fill="#E6E6E6" d="M28.5,14.1c-0.9-5.7,2.7-11.2,8.2-12.7C42.5-0.4,50.2,1.6,55.8,6c7.5-1.2,13-9,20.7-4.7
			c1.7,1.2,3.4,2.5,4.9,3.9c9.6,7.7,23,5.6,33.7,11.8c10.1,5.8,14.4,19,8.2,25.2c2.2-0.8,5.6,0.9,7.3,3.1c1.5,2.1,2.3,4.7,2.4,7.2
			c2,19.9-7.3,37.7-24.2,46.6c-3.7,1.9-8.2,3.5-13.1,1.9s-9.2-7.7-6.4-10.5c-11.7,3.4-23.5,6.4-35.6,9.1c-3,0.7-7.6,0.5-9-2.5
			c-0.6-1.4-0.1-2.7,0.5-3.8l4.2-8.7c-12-6-23.7-12.5-35.2-19.4c-2.8-1.7-5.9-3.7-7-6.4c-1.6-3.9,1.6-6.8,4.3-9.3s4.7-6.6,1.5-10
			c-3.7-3.8-12.1-4-12.9-8.4c-0.1-1.1,0.3-2.2,1-3.1c5.3-8,13.9-16.8,25.8-12.5"/>
	</g>
</g>
</svg>
