<?xml version="1.0" encoding="utf-8"?>
<!-- Generator: Adobe Illustrator 24.1.0, SVG Export Plug-In . SVG Version: 6.00 Build 0)  -->
<svg version="1.1" id="圖層_1" xmlns="http://www.w3.org/2000/svg" xmlns:xlink="http://www.w3.org/1999/xlink" x="0px" y="0px"
	 viewBox="0 0 424 154.1" enable-background="new 0 0 424 154.1" xml:space="preserve">
<g id="圖層_2_1_">
	<g id="圖層_1-2">
		<path fill="#E6E6E6" d="M53.4,38.2c-11.1-8.2-9.9-17,3.1-21.7s36.9-5,59-0.8c18.4-4.8,21.6-18.3,49.2-15.1
			c6.5,0.8,12.8,2.4,19.3,3.7c37.7,7.3,71-1.1,109.3,3.5c36.3,4.4,68,21.8,60.5,33.1c4.8-2.1,16.5-1,24.6,1.6
			c6.4,2,12.4,5.2,17.5,9.5c35.5,27.9,37.4,57.4,4.9,77.1c-7,4.3-17,8.3-32.7,8s-36.7-7.4-33.4-12.6c-26.5,9.5-54.2,18.7-82.8,27.4
			c-7.1,2.1-19.9,3.8-28.1,0c-3.8-1.7-4.3-3.8-4.6-5.7l-1.9-14.2c-41.5-3.8-83.2-8.5-125.1-13.9c-10.2-1.3-21.6-3-28.8-6.5
			c-10.4-5-6-10.5-2.5-15.1c3.5-4.6,2.8-11.4-11.2-15c-15.9-4-39-0.9-47.7-7.1c-2.4-1.6-2.2-3.3-2-4.9C2.6,55.7,12.4,39.6,51.4,41"
			/>
	</g>
</g>
</svg>
