<svg xmlns="http://www.w3.org/2000/svg" viewBox="0 0 133.35 101.7"><defs><style>.cls-1{fill:#e6e6e6;}</style></defs><title>資產 32</title><g id="圖層_2" data-name="圖層 2"><g id="圖層_1-2" data-name="圖層 1"><path class="cls-1" d="M28.52,14.06A11.37,11.37,0,0,1,36.77,1.32C42.46-.35,50.21,1.56,55.84,6,63.31,4.81,68.86-3,76.58,1.3A38.12,38.12,0,0,1,81.5,5.2c9.58,7.69,23,5.59,33.66,11.76,10.1,5.84,14.39,19,8.2,25.18,2.23-.85,5.6.87,7.32,3.13a13.75,13.75,0,0,1,2.41,7.25c2,19.87-7.27,37.67-24.23,46.61-3.68,1.94-8.21,3.5-13.13,1.92s-9.21-7.67-6.42-10.5q-17.49,5.06-35.57,9.09c-3,.67-7.61.5-9-2.48-.63-1.38-.09-2.66.45-3.8l4.15-8.7q-17.94-9-35.2-19.39c-2.82-1.71-5.88-3.72-7-6.42-1.64-3.94,1.6-6.83,4.26-9.26s4.74-6.6,1.46-10C9.17,35.8.76,35.63,0,31.18a4.31,4.31,0,0,1,1-3.11c5.35-8,13.86-16.75,25.83-12.47"/></g></g></svg>