<?xml version="1.0" encoding="utf-8"?>
<!-- Generator: Adobe Illustrator 24.1.0, SVG Export Plug-In . SVG Version: 6.00 Build 0)  -->
<svg version="1.1" id="圖層_1" xmlns="http://www.w3.org/2000/svg" xmlns:xlink="http://www.w3.org/1999/xlink" x="0px" y="0px"
	 viewBox="0 0 60.9 91.6" enable-background="new 0 0 60.9 91.6" xml:space="preserve">
<g id="圖層_2_1_">
	<g id="圖層_1-2">
		<path fill="#FFFFFF" d="M60.9,38.7c-18.5-5.9-37.1,5.9-55.6,0v-37c18.5,5.9,37-5.9,55.6,0V38.7z"/>
		<path fill="#C1272D" d="M16.4,40.4c-3.8,0-7.5-0.6-11.1-1.7v-37c3.6,1.1,7.3,1.7,11.1,1.7L16.4,40.4z"/>
		<path fill="#C1272D" d="M60.9,38.7c-3.6-1.1-7.3-1.7-11.1-1.7V0c3.8,0,7.5,0.6,11.1,1.7L60.9,38.7z"/>
		<path fill="#C1272D" d="M43.2,19.2c-0.2-0.3-0.2-0.6,0-0.9c0.4-0.6,0.8-1.2,1.2-1.8c0.2-0.3,0.2-0.7-0.1-0.9
			c-0.1-0.1-0.2-0.1-0.4-0.1c-0.7,0-1.4,0-2.1,0c-0.3,0-0.6-0.2-0.7-0.6c-0.1-0.5-0.1-1-0.2-1.5c-0.1-0.3-0.4-0.6-0.7-0.5
			c-0.1,0-0.3,0.1-0.4,0.2l-3,2.9c-0.2,0.2-0.5,0-0.4-0.2c0.3-1.5,0.7-2.9,1.1-4.4c0.1-0.3-0.1-0.6-0.4-0.7c-0.2-0.1-0.3,0-0.5,0.1
			l-1.5,0.7c-0.3,0.2-0.7,0.1-0.8-0.2l-1-1.6c-0.2-0.3-0.7-0.3-0.9-0.1c-0.1,0.1-0.2,0.2-0.2,0.3l-1,2c-0.2,0.3-0.5,0.5-0.8,0.5
			L29,12.1c-0.4-0.1-0.8,0.1-1,0.5c0,0.1,0,0.3,0,0.4l1.1,4.1c0,0.2-0.1,0.3-0.2,0.4c-0.1,0-0.1,0-0.2,0l-3-2.1
			c-0.4-0.2-0.8-0.1-1,0.3c0,0.1-0.1,0.2-0.1,0.3l-0.2,1.5c0,0.3-0.3,0.6-0.6,0.7c-0.7,0.1-1.4,0.2-2.1,0.4
			c-0.4,0.1-0.7,0.4-0.6,0.8c0,0.1,0.1,0.2,0.1,0.3l1.2,1.6c0.2,0.3,0.2,0.6,0,0.9l-1,1.2c-0.2,0.2-0.2,0.6,0,0.9
			c0.1,0.1,0.2,0.2,0.4,0.2c1,0.1,2,0.2,3,0.3c0.1,0,0.2,0.1,0.2,0.2c0,0.1,0,0.1-0.1,0.1L24,25.9c-0.3,0.2-0.3,0.6-0.1,0.9
			c0.1,0.1,0.2,0.2,0.3,0.2c1.9,0.2,3.9,0.3,5.8,0.4c-0.7,2.9-1.5,5.7-2.4,8.5c3-0.7,6-1.3,9.1-1.6c-0.8-2.5-1.4-5-1.7-7.6
			c2.1-0.8,4.2-1.5,6.3-2.2c0.4-0.1,0.6-0.5,0.5-0.8c0-0.1-0.1-0.2-0.2-0.3l-0.9-0.7c-0.1-0.1-0.1-0.3,0-0.4c0,0,0.1,0,0.1-0.1
			c1-0.3,2-0.6,3-0.9c0.4-0.1,0.6-0.5,0.5-0.9c0-0.1-0.1-0.2-0.1-0.3C43.9,19.8,43.5,19.5,43.2,19.2z"/>
		<path fill="#8C6239" d="M2.2,91.6L2.2,91.6C1,91.7,0,91.1,0,90.3l4-87c0-0.8,1.1-1.5,2.3-1.6l0,0C7.6,1.6,8.6,2.2,8.5,3l-4,87
			C4.5,90.8,3.5,91.5,2.2,91.6z"/>
	</g>
</g>
</svg>
