<?xml version="1.0" encoding="utf-8"?>
<!-- Generator: Adobe Illustrator 24.1.0, SVG Export Plug-In . SVG Version: 6.00 Build 0)  -->
<svg version="1.1" id="圖層_1" xmlns="http://www.w3.org/2000/svg" xmlns:xlink="http://www.w3.org/1999/xlink" x="0px" y="0px"
	 viewBox="0 0 112.5 191.3" enable-background="new 0 0 112.5 191.3" xml:space="preserve">
<g id="圖層_2_1_">
	<g id="圖層_1-2">
		<path fill="#C69C6D" d="M81.1,79.1C73,71,65,61.8,54.5,55.1c-0.8-0.5-1-1.5-0.5-2.2c0,0,0.1-0.1,0.1-0.1
			c11.2-14.1,26.7-36.2,19.1-42.3C64.1,3,49.1,36.6,43.6,50.2l-2.2,1.3c-0.9-0.1-1.5-0.9-1.4-1.8c0-0.1,0.1-0.3,0.1-0.4
			c6.9-16.1,17.3-44.5,7.7-48.8C35.9-4.9,31.1,39.5,30.1,50H30c-0.3,0-0.6,0-0.9,0.1c-4,1.8-34.7,16.4-22,35.7
			c13.6,20.7,24.7,3.3,24.7,3.3c-1.6,2.8-2.6,5.9-2.9,9.2l-4.9,0.2c-1.5,0-3.1,0.2-4.6,0.5c-2.9,0.7-5.5,2.5-7.9,4.3
			c-0.3,0.2-0.6,0.5-0.7,0.9c-0.1,0.7,0.6,1.2,1.3,1.5c5.1,2.1,10.7,2.6,16.1,1.5c-0.2,0.3-0.6,0.5-1,0.6c-5,0.8-10,2.1-14.7,3.8
			c-3.1,1.1-13.9,4.8-12.4,7.4c1.4,2.4,13.4,4.3,23,2.4c1.6-0.3,3.2-0.8,4.8-1.3c0.8-0.3,1.8,0.2,2.1,1c0,0.1,0.1,0.2,0.1,0.3
			c3,19.7,9.9,40.6,11.1,44c0.1,0.3,0.3,0.5,0.5,0.7c0.1,0.1,0.2,0.2,0.4,0.3l-2.3-1.3c-3.3,3.5-5.5,7.8-6.6,12.5
			c-0.2,1.3,0.3,2.6,1.2,2.6s2,0,3.2-0.1c-5,3.8-6.8,7.2-7.4,9.2c-0.3,0.9,0.2,1.8,1.1,2c0.2,0,0.3,0.1,0.5,0.1c5.3,0,20-0.4,20-4.2
			c0-4.4,7.3-12.7,9.1-14.8c0.3-0.3,0.6-0.5,1-0.5L70,171c0.8-0.1,1.4-0.7,1.4-1.4l0.6-4.8c0.1-0.5,0.4-1,0.9-1.2
			c4.4-2.2,26.5-13.7,30.1-23.8C107.2,128.5,94.5,92.7,81.1,79.1z"/>
		<path fill="#8C6239" d="M32.9,117.8c3.7-0.9,7.6-1.7,11.6-1.1c20.4,2.9,41.5-1.5,57.9-11.9l0.5,0.4c5.8,5,9.3,12.1,9.5,19.8
			c0.3,7.2-0.1,14.8-4.5,21c-1.4,2,5.6,0.9-3.6,6.3c-3.8,2.3-4.9-1.1-6.2,4.6c-1.7,6.9-24.3,18.7-37.8,22.1c-1,0.3-1.6,1.4-2.9,1
			c-0.9-0.4-1.8-0.7-2.7-0.8c-5.3-0.2-9.5-4.5-14.3-6.8c-0.9-0.3-1.8-0.9-2.4-1.7c-0.3-0.6-0.4-1.3-0.4-2c0-3.2,0.2-6.4,0.7-9.6
			c0.1-0.9-0.5-1.7-1.4-1.8c-0.1,0-0.3,0-0.4,0l-4.5,0.6c-0.4,0.1-0.9,0.1-1.3,0c-0.9-0.3-1-1.4-1-2.2l0.1-14l0.1-15.2
			C30.1,123.3,25.7,119.4,32.9,117.8z"/>
		<path fill="#754C24" d="M30.6,92.1c4.1,0.5,8.1,1.6,11.8,3.2c9.2,3.7,17.9,8.7,25.6,15c2.4,2,4.6,4.1,5.5,6.5
			c-2.3,0.1-4.8,0.1-6.7-1c-0.7-0.4-1.3-0.9-1.9-1.4c-2-1.8-4.2-3.4-6.5-4.9c-7.7-5-16.3-8.6-25.3-10.6c-0.6-0.1-1.1-0.3-1.6-0.6
			c-0.3-0.2-0.5-0.5-0.6-0.7c-0.8-1.4-1.1-3.1-0.7-4.7"/>
		<path fill="#F0A6AF" d="M50.9,51.7c-0.8,1-1.6,2.1-2.4,3.1L47,53.6l-1.2-1.1c0.5-1,0.9-2,1.4-3c2.9-6.4,7-12.4,11.1-18.3
			l10.9-15.9c0.1-0.3,0.4-0.5,0.7-0.5c0.7-0.1,0.9,0.8,0.8,1.4c-0.7,4.3-1.4,8.7-3.3,12.8c-1.7,3.3-3.8,6.5-6.2,9.4L50.9,51.7z"/>
		<path fill="#F0A6AF" d="M48.1,10c0.2-1.3,0.4-2.5,0.6-3.8l-1.7,0l-1.5,0.1c-0.3,1-0.8,2.1-1.1,3.1c-2.5,6.6-3.9,13.5-5.3,20.3
			c-1.3,6.1-2.5,12.3-3.8,18.4c-0.1,0.3-0.1,0.5,0.1,0.8c0.4,0.5,1.2,0,1.5-0.6c2.5-3.7,4.9-7.3,6.4-11.5c1.1-3.5,1.9-7.1,2.4-10.7
			C46.5,20.8,47.3,15.4,48.1,10z"/>
		<circle cx="15.1" cy="74.1" r="2.2"/>
	</g>
</g>
</svg>
