<svg xmlns="http://www.w3.org/2000/svg" viewBox="0 0 112.52 191.26"><defs><style>.cls-1{fill:#c69c6d;}.cls-2{fill:#8c6239;}.cls-3{fill:#754c24;}.cls-4{fill:#f0a6af;}</style></defs><title>資產 34</title><g id="圖層_2" data-name="圖層 2"><g id="圖層_1-2" data-name="圖層 1"><path class="cls-1" d="M81.07,79.11C73,71,65,61.83,54.48,55.06a1.62,1.62,0,0,1-.39-2.37C65.28,38.6,80.78,16.46,73.21,10.36,64.08,3,49.11,36.64,43.57,50.17l-2.24,1.3a1.63,1.63,0,0,1-1.28-2.26C46.92,33.08,57.32,4.75,47.77.45,35.86-4.91,31.1,39.53,30.15,50h-.1a1.56,1.56,0,0,0-.88.13c-4,1.81-34.68,16.39-22,35.7,13.61,20.65,24.72,3.28,24.72,3.28A22.68,22.68,0,0,0,29,98.28l-4.87.16a23.49,23.49,0,0,0-4.58.47c-2.94.7-5.47,2.51-7.92,4.27a1.63,1.63,0,0,0-.73.87c-.15.69.61,1.21,1.27,1.49A27.48,27.48,0,0,0,28.3,107a1.6,1.6,0,0,1-1,.61,79.64,79.64,0,0,0-14.73,3.81C9.44,112.52-1.33,116.2.14,118.84c1.35,2.44,13.39,4.28,23,2.38a37.36,37.36,0,0,0,4.78-1.29,1.62,1.62,0,0,1,2.12,1.31c3,19.69,9.91,40.59,11.06,44a1.65,1.65,0,0,0,.51.74c.11.08.24.2.38.32L39.66,165a26.69,26.69,0,0,0-6.56,12.47c-.24,1.28.34,2.57,1.16,2.57s2,0,3.21-.09c-5,3.79-6.77,7.17-7.41,9.23a1.62,1.62,0,0,0,1.55,2.1c5.33,0,20-.35,20-4.17,0-4.41,7.28-12.7,9.14-14.75a1.62,1.62,0,0,1,1-.53l8.3-.82a1.62,1.62,0,0,0,1.45-1.4l.64-4.8a1.61,1.61,0,0,1,.88-1.24c4.42-2.21,26.51-13.68,30.11-23.79C107.22,128.51,94.46,92.67,81.07,79.11Z"/><path class="cls-2" d="M32.87,117.76c3.74-.88,7.6-1.67,11.65-1.1,20.41,2.88,41.55-1.46,57.88-11.86l.54.44A27.06,27.06,0,0,1,112.43,125c.34,7.24-.08,14.76-4.46,21-1.4,2,5.56.91-3.57,6.33-3.84,2.27-4.89-1.15-6.25,4.55C96.5,163.76,73.83,175.55,60.32,179c-1,.26-1.63,1.37-2.86,1a10.62,10.62,0,0,0-2.74-.84c-5.27-.22-9.52-4.52-14.28-6.78a5.26,5.26,0,0,1-2.36-1.74,3.88,3.88,0,0,1-.39-2,58.29,58.29,0,0,1,.7-9.62,1.58,1.58,0,0,0-1.78-1.76l-4.51.59a2.48,2.48,0,0,1-1.27,0c-.85-.34-1-1.36-1-2.17l.12-14,.12-15.17C30.13,123.31,25.67,119.45,32.87,117.76Z"/><path class="cls-3" d="M30.59,92.1a41.72,41.72,0,0,1,11.82,3.23,98.56,98.56,0,0,1,25.57,15c2.36,2,4.64,4.08,5.49,6.54-2.3.06-4.81.07-6.71-1a11.41,11.41,0,0,1-1.86-1.39,63.41,63.41,0,0,0-6.46-4.92A77,77,0,0,0,33.18,99a4.19,4.19,0,0,1-1.6-.59,2.2,2.2,0,0,1-.6-.74,6.54,6.54,0,0,1-.7-4.7"/><path class="cls-4" d="M50.87,51.72c-.81,1.05-1.62,2.1-2.44,3.14L47,53.62l-1.25-1.13c.49-1,.92-2,1.38-3,2.93-6.43,7-12.39,11.07-18.32L69.1,15.27a1,1,0,0,1,.66-.53c.71-.11.94.82.84,1.44-.71,4.34-1.44,8.74-3.31,12.77a51.64,51.64,0,0,1-6.17,9.38Z"/><path class="cls-4" d="M48.13,10c.19-1.27.38-2.54.56-3.81L47,6.22l-1.55.07c-.34,1-.75,2.05-1.13,3.07C41.83,15.92,40.42,22.82,39,29.69q-1.89,9.21-3.76,18.42a1,1,0,0,0,.06.79c.38.51,1.15,0,1.5-.56,2.45-3.65,4.92-7.35,6.44-11.49a55.41,55.41,0,0,0,2.38-10.7Q46.88,18.07,48.13,10Z"/><circle cx="15.08" cy="74.08" r="2.16"/></g></g></svg>