<svg xmlns="http://www.w3.org/2000/svg" viewBox="0 0 29.26 31.89"><title>資產 27</title><g id="圖層_2" data-name="圖層 2"><g id="圖層_1-2" data-name="圖層 1"><path d="M4.94,1.45l.2,12.26c0,1.2,1,15-2.86,13.33-1.09-.48-2.65.33-2.2,1.7,1,2.9,3.43,3.87,6.16,2.62A1.51,1.51,0,0,0,7,30.06l.13-2.62c.1-1.93-2.9-1.93-3,0q.42,2.37-1.15.5L.77,29.63c3.8,1.7,6.73-.74,7.4-4.64.56-3.27,0-7,0-10.34L7.94,1.45c0-1.93-3-1.94-3,0Z"/><path d="M5.6,5.19a65.56,65.56,0,0,1,21.78.72c1.88.38,2.69-2.51.8-2.89A68.23,68.23,0,0,0,5.6,2.19c-1.89.24-1.92,3.24,0,3Z"/></g></g></svg>