<?xml version="1.0" encoding="utf-8"?>
<!-- Generator: Adobe Illustrator 24.1.0, SVG Export Plug-In . SVG Version: 6.00 Build 0)  -->
<svg version="1.1" id="圖層_1" xmlns="http://www.w3.org/2000/svg" xmlns:xlink="http://www.w3.org/1999/xlink" x="0px" y="0px"
	 viewBox="0 0 29.3 31.9" enable-background="new 0 0 29.3 31.9" xml:space="preserve">
<g id="圖層_2_1_">
	<g id="圖層_1-2">
		<path d="M4.9,1.4l0.2,12.3c0,1.2,1,15-2.9,13.3c-1.1-0.5-2.7,0.3-2.2,1.7c1,2.9,3.4,3.9,6.2,2.6C6.7,31.1,7,30.6,7,30.1l0.1-2.6
			c0.1-1.9-2.9-1.9-3,0C4.4,29,4,29.2,3,27.9l-2.2,1.7c3.8,1.7,6.7-0.7,7.4-4.6c0.6-3.3,0-7,0-10.3L7.9,1.4C7.9-0.5,4.9-0.5,4.9,1.4
			z"/>
		<path d="M5.6,5.2c7.2-1,14.6-0.7,21.8,0.7c1.9,0.4,2.7-2.5,0.8-2.9C20.8,1.5,13.1,1.2,5.6,2.2C3.7,2.4,3.7,5.4,5.6,5.2z"/>
	</g>
</g>
</svg>
