<svg xmlns="http://www.w3.org/2000/svg" viewBox="0 0 24.03 48.56"><title>資產 28</title><g id="圖層_2" data-name="圖層 2"><g id="圖層_1-2" data-name="圖層 1"><path d="M9.65,1.09q-3,20.45-4.2,41.08L7.7,40.88l-4.19-2a1.56,1.56,0,0,0-2.06.54,6.73,6.73,0,0,0,0,8.33,1.51,1.51,0,0,0,2.05.54,7.83,7.83,0,0,0,3.38-5.12c.41-1.88-2.48-2.69-2.89-.8L2,45.74,4,46.28a3.71,3.71,0,0,1,0-5.31L2,41.51l4.2,2a1.53,1.53,0,0,0,2.26-1.3Q9.65,22,12.54,1.88C12.82,0,9.93-.82,9.65,1.09Z"/><path d="M11.05,4.17A18.35,18.35,0,0,1,21.1,17.28c.38,1.89,3.27,1.09,2.9-.8A21.2,21.2,0,0,0,12.57,1.58C10.84.72,9.32,3.31,11.05,4.17Z"/></g></g></svg>