<?xml version="1.0" encoding="utf-8"?>
<!-- Generator: Adobe Illustrator 24.1.0, SVG Export Plug-In . SVG Version: 6.00 Build 0)  -->
<svg version="1.1" id="圖層_1" xmlns="http://www.w3.org/2000/svg" xmlns:xlink="http://www.w3.org/1999/xlink" x="0px" y="0px"
	 viewBox="0 0 24 48.6" enable-background="new 0 0 24 48.6" xml:space="preserve">
<g id="圖層_2_1_">
	<g id="圖層_1-2">
		<path d="M9.6,1.1c-2,13.6-3.4,27.3-4.2,41.1l2.2-1.3l-4.2-2c-0.7-0.4-1.6-0.2-2.1,0.5c-1.9,2.4-1.9,5.9,0,8.3c0.4,0.7,1.3,1,2,0.5
			c1.8-1.2,3-3,3.4-5.1c0.4-1.9-2.5-2.7-2.9-0.8l-2,3.4l2,0.5c-1.5-1.4-1.5-3.8-0.1-5.2C4,41,4,41,4,41l-2,0.5l4.2,2
			c0.7,0.4,1.7,0.1,2.1-0.6c0.1-0.2,0.2-0.4,0.2-0.7c0.8-13.5,2.2-26.9,4.1-40.3C12.8,0,9.9-0.8,9.6,1.1z"/>
		<path d="M11.1,4.2c5.2,2.5,9,7.4,10.1,13.1c0.4,1.9,3.3,1.1,2.9-0.8c-1.3-6.5-5.5-12-11.4-14.9C10.8,0.7,9.3,3.3,11.1,4.2z"/>
	</g>
</g>
</svg>
