<?xml version="1.0" encoding="utf-8"?>
<!-- Generator: Adobe Illustrator 24.1.0, SVG Export Plug-In . SVG Version: 6.00 Build 0)  -->
<svg version="1.1" id="圖層_1" xmlns="http://www.w3.org/2000/svg" xmlns:xlink="http://www.w3.org/1999/xlink" x="0px" y="0px"
	 viewBox="0 0 9.5 57.1" enable-background="new 0 0 9.5 57.1" xml:space="preserve">
<g id="圖層_2_1_">
	<g id="圖層_1-2">
		<path d="M5.3,1.4C4.8,18.1,5.1,34.7,6,51.3l1.1-1.4l-6.1,1.3c-0.8,0.2-1.3,1.1-1,1.9c0,0.1,0.1,0.2,0.1,0.3c2.4,5.4,7.3,4.8,9-0.8
			c0.2-0.8-0.3-1.6-1.1-1.8c-0.4-0.1-0.8,0-1.1,0.1c-1.5,0.7-2.5,2.1-2.7,3.8c-0.3,1.9,2.6,2.7,2.9,0.8l2.3-12.5
			c0.3-1.9-2.6-2.7-2.9-0.8L4.3,54.7l2.9,0.8l1.2-2l-2.2-1.7c-1.9,1.9-3.1,1.9-3.5,0.1L1.9,54l6.1-1.3C8.6,52.5,9,51.9,9,51.3
			C8.1,34.7,7.8,18.1,8.3,1.4C8.4-0.5,5.4-0.5,5.3,1.4z"/>
	</g>
</g>
</svg>
