<svg xmlns="http://www.w3.org/2000/svg" viewBox="0 0 9.51 57.14"><title>資產 29</title><g id="圖層_2" data-name="圖層 2"><g id="圖層_1-2" data-name="圖層 1"><path d="M5.33,1.45Q4.58,26.38,6,51.29l1.11-1.44L1.06,51.17a1.51,1.51,0,0,0-.89,2.2c2.44,5.44,7.32,4.83,9-.79a1.52,1.52,0,0,0-2.21-1.69A4.58,4.58,0,0,0,4.3,54.67c-.27,1.87,2.55,2.72,2.9.79L9.48,42.92c.34-1.89-2.55-2.7-2.89-.8L4.3,54.67l2.9.79,1.24-2-2.21-1.7q-2.88,2.85-3.47.08l-.9,2.2,6.08-1.32A1.5,1.5,0,0,0,9,51.29Q7.59,26.39,8.33,1.45c.06-1.93-2.94-1.93-3,0Z"/></g></g></svg>