<svg xmlns="http://www.w3.org/2000/svg" viewBox="0 0 49.96 56.15"><title>資產 30</title><g id="圖層_2" data-name="圖層 2"><g id="圖層_1-2" data-name="圖層 1"><path d="M4.46,3.34c7.25.08,14.5.35,21.74.88,4.75.35,20.09-.43,20.31,5.7.1,2.87-1.6,6.68-2.26,9.48L41.76,29.83l-5,20.87,1.84-1.05c-3-1.09-6.56-.31-5.74,3.51a1.51,1.51,0,0,0,1.84,1.05c5.74-1.76,2-9.28-2-6.65s.74,9.11,3.62,4.74A1.52,1.52,0,0,0,35,50c-2.64-.25-4.13,1.34-4.33,3.88-.15,1.93,2.85,1.92,3,0L35,53l-1.3-2.26.2.54,1.84,1,2.06.17a1.51,1.51,0,0,0,1.84-1L46,24.94c1.05-4.43,2.16-8.84,3.17-13.28.42-1.88,1.36-4.49.29-6.39-.84-1.49-2.07-1.69-3.6-2-4.45-1-9.24-1.13-13.76-1.54C22.91.87,13.69.44,4.46.34a1.5,1.5,0,0,0,0,3Z"/><path d="M5.23,1.45q-.74,24.48.7,48.93L7,48.93l-6,1.3a1.51,1.51,0,0,0-.89,2.2C2.58,57.8,7.4,57.18,9,51.65A1.51,1.51,0,0,0,6.81,50a4.54,4.54,0,0,0-2.59,3.72c-.27,1.87,2.55,2.72,2.9.8L9.36,42.17c.34-1.89-2.55-2.7-2.89-.8L4.22,53.68l2.9.8,1.2-1.93-2.2-1.69q-2.79,2.76-3.36.06l-.9,2.2,6-1.29a1.51,1.51,0,0,0,1.1-1.45Q7.51,25.93,8.23,1.45c.06-1.93-2.94-1.93-3,0Z"/></g></g></svg>