<?xml version="1.0" encoding="utf-8"?>
<!-- Generator: Adobe Illustrator 24.1.0, SVG Export Plug-In . SVG Version: 6.00 Build 0)  -->
<svg version="1.1" id="圖層_1" xmlns="http://www.w3.org/2000/svg" xmlns:xlink="http://www.w3.org/1999/xlink" x="0px" y="0px"
	 viewBox="0 0 50 56.2" enable-background="new 0 0 50 56.2" xml:space="preserve">
<g id="圖層_2_1_">
	<g id="圖層_1-2">
		<path d="M4.5,3.3C11.7,3.4,19,3.7,26.2,4.2C31,4.6,46.3,3.8,46.5,9.9c0.1,2.9-1.6,6.7-2.3,9.5l-2.5,10.4l-5,20.9l1.8-1
			c-3-1.1-6.6-0.3-5.7,3.5c0.2,0.8,1,1.3,1.8,1c5.7-1.8,2-9.3-2-6.7s0.7,9.1,3.6,4.7c0.4-0.7,0.2-1.7-0.5-2.1
			C35.6,50.1,35.3,50,35,50c-2.6-0.2-4.1,1.3-4.3,3.9c-0.1,1.9,2.9,1.9,3,0L35,53l-1.3-2.3l0.2,0.5l1.8,1l2.1,0.2
			c0.8,0.2,1.6-0.2,1.8-1L46,24.9c1-4.4,2.2-8.8,3.2-13.3c0.4-1.9,1.4-4.5,0.3-6.4c-0.8-1.5-2.1-1.7-3.6-2c-4.5-1-9.2-1.1-13.8-1.5
			C22.9,0.9,13.7,0.4,4.5,0.3C3.6,0.3,3,1,3,1.8C3,2.7,3.6,3.3,4.5,3.3z"/>
		<path d="M5.2,1.4C4.7,17.8,5,34.1,5.9,50.4L7,48.9l-6,1.3c-0.8,0.2-1.3,1.1-1,1.9c0,0.1,0.1,0.2,0.1,0.3c2.5,5.4,7.3,4.8,8.9-0.8
			c0.2-0.8-0.3-1.6-1.2-1.8c-0.4-0.1-0.7,0-1,0.1c-1.5,0.7-2.5,2.1-2.6,3.7c-0.3,1.9,2.6,2.7,2.9,0.8l2.2-12.4
			c0.3-1.9-2.6-2.7-2.9-0.8L4.2,53.7l2.9,0.8l1.2-1.9l-2.2-1.7c-1.9,1.8-3,1.9-3.4,0.1l-0.9,2.2l6-1.3C8.5,51.6,9,51.1,9,50.4
			C8,34.1,7.8,17.8,8.2,1.4C8.3-0.5,5.3-0.5,5.2,1.4z"/>
	</g>
</g>
</svg>
