<?xml version="1.0" encoding="utf-8"?>
<!-- Generator: Adobe Illustrator 24.1.0, SVG Export Plug-In . SVG Version: 6.00 Build 0)  -->
<svg version="1.1" id="圖層_1" xmlns="http://www.w3.org/2000/svg" xmlns:xlink="http://www.w3.org/1999/xlink" x="0px" y="0px"
	 viewBox="0 0 486.5 307.5" enable-background="new 0 0 486.5 307.5" xml:space="preserve">
<g id="圖層_2_1_">
	<g id="圖層_1-2">
		<path fill="#39B54A" d="M69.2,293.8C50.9,198.4,65.9,97,111,11C70.9,58.1,43.4,114.6,31.1,175.2c-4.4,21.8-6.8,44.5-1.6,66.2
			c5,20.7,16.6,39.1,33.1,52.6c3.5,2.9,10.4,4.5,11.3,0"/>
		<path fill="#39B54A" d="M53.6,286.2c-31.5-85.6-33-181.9-4.2-268.5C19.4,67.4,2.4,124,0.2,182c-0.8,20.9,0.5,42.3,8.6,61.6
			c7.8,18.4,21.4,33.7,38.6,43.8c3.7,2.1,10.3,2.6,10.5-1.7"/>
		<path fill="#39B54A" d="M66.7,307.3c25.4-39.9,45.8-83.4,55.2-129.6s7.3-95.6-10.9-139.2c33,32.3,49.5,80.8,43,126.6
			c-4.3,30.8-18.2,59.3-33.3,86.5C110,271,96.6,291.6,75.2,298.2"/>
		<path fill="#39B54A" d="M44.5,307.5c26.4-35,47.7-73.3,57.8-114.2s8.3-84.6-9.9-123.4c33.6,29,50,72.1,43,112.5
			c-4.7,27.2-19.2,52.3-34.9,76.2c-11.3,17.2-25.3,35.3-47.2,40.9"/>
		<path fill="#39B54A" d="M180.2,288.8C161.9,193.4,176.9,92,222,6c-40.1,47.1-67.7,103.6-80,164.2c-4.4,21.8-6.8,44.5-1.6,66.2
			c5,20.7,16.6,39.1,33.1,52.6c3.5,2.9,10.4,4.5,11.3,0"/>
		<path fill="#39B54A" d="M164.6,281.2c-31.5-85.6-33-181.9-4.2-268.5c-30,49.7-47,106.3-49.2,164.3c-0.8,20.9,0.5,42.3,8.6,61.6
			c7.8,18.4,21.4,33.7,38.6,43.8c3.7,2.1,10.3,2.6,10.5-1.7"/>
		<path fill="#39B54A" d="M177.7,302.3c25.4-39.9,45.8-83.4,55.2-129.6s7.3-95.6-10.9-139.2c33,32.3,49.5,80.8,43,126.6
			c-4.3,30.8-18.2,59.3-33.3,86.5c-10.8,19.5-24.3,40.1-45.6,46.7"/>
		<path fill="#39B54A" d="M155.5,302.5c26.4-35,47.7-73.3,57.8-114.2s8.3-84.6-9.9-123.4c33.6,29,50,72.1,43,112.5
			c-4.7,27.2-19.2,52.3-34.9,76.2c-11.3,17.2-25.2,35.3-47.2,40.9"/>
		<path fill="#39B54A" d="M309.2,282.8C290.9,187.4,305.9,86,351,0c-40.1,47.1-67.6,103.6-80,164.2c-4.4,21.8-6.8,44.5-1.6,66.2
			c5,20.7,16.6,39.1,33.1,52.6c3.5,2.9,10.4,4.5,11.3,0"/>
		<path fill="#39B54A" d="M293.6,275.2c-31.5-85.6-33-181.9-4.2-268.5c-30,49.7-47,106.3-49.2,164.3c-0.8,20.9,0.5,42.3,8.6,61.6
			c7.8,18.4,21.4,33.7,38.6,43.8c3.7,2.1,10.3,2.6,10.5-1.7"/>
		<path fill="#39B54A" d="M306.7,296.3c25.4-39.9,45.8-83.4,55.2-129.6s7.3-95.6-10.9-139.2c33,32.3,49.5,80.8,43,126.6
			c-4.3,30.8-18.2,59.3-33.3,86.5c-10.8,19.5-24.3,40.1-45.6,46.7"/>
		<path fill="#39B54A" d="M284.5,296.5c26.4-35,47.7-73.3,57.8-114.2s8.3-84.6-9.9-123.4c33.6,29,50,72.1,43,112.5
			c-4.7,27.2-19.2,52.3-34.9,76.2c-11.3,17.2-25.2,35.3-47.2,40.9"/>
		<path fill="#39B54A" d="M400.2,287.8C381.9,192.4,396.9,91,442,5c-40.1,47.1-67.6,103.6-80,164.2c-4.4,21.8-6.8,44.5-1.6,66.2
			c5,20.7,16.6,39.1,33.1,52.6c3.5,2.9,10.4,4.5,11.3,0"/>
		<path fill="#39B54A" d="M384.6,280.2c-31.5-85.6-33-181.9-4.2-268.5c-30,49.7-47,106.3-49.2,164.3c-0.8,20.9,0.5,42.3,8.6,61.6
			c7.8,18.4,21.4,33.7,38.6,43.8c3.7,2.1,10.3,2.6,10.5-1.7"/>
		<path fill="#39B54A" d="M397.7,301.3c25.4-39.9,45.8-83.4,55.2-129.6s7.3-95.6-10.9-139.2c33,32.3,49.5,80.8,43,126.6
			c-4.3,30.8-18.2,59.3-33.3,86.5c-10.8,19.5-24.3,40.1-45.6,46.7"/>
		<path fill="#39B54A" d="M375.5,301.5c26.4-35,47.7-73.3,57.8-114.2s8.3-84.6-9.9-123.4c33.6,29,50,72.1,43,112.5
			c-4.7,27.2-19.2,52.3-34.9,76.2c-11.3,17.2-25.2,35.3-47.2,40.9"/>
	</g>
</g>
</svg>
