<svg xmlns="http://www.w3.org/2000/svg" viewBox="0 0 238.26 226"><defs><style>.cls-1{fill:red;}</style></defs><title>資產 26</title><g id="圖層_2" data-name="圖層 2"><g id="圖層_1-2" data-name="圖層 1"><path class="cls-1" d="M110.07,225.41c-23.86-7.41-43.49-23-61.16-39.4C32.36,170.68,16.6,153.9,8.25,133.8c-8.5-20.45-8.73-42.89-8-64.74C.89,51.89,3.2,32.59,17.94,21.84c6.32-4.6,14.2-7,22-9.13C50.56,9.78,62,7.18,72.7,10c15.8,4.11,25.23,18.4,33.11,31.51l21,35c4.25-18.28,8.73-37.07,20.28-52.51s32-26.9,52.17-23.32c16.53,2.94,29.64,15.58,35.18,30s4.41,30.44.39,45.31S224,105,218.23,119.37a350.14,350.14,0,0,0-18.46,61.24c-1.22,6-2.33,12.17-5.69,17.45-4.2,6.61-11.44,11.1-18.69,14.93-19.35,10.23-43.14,17.48-63.87,9.81"/></g></g></svg>