<?xml version="1.0" encoding="utf-8"?>
<!-- Generator: Adobe Illustrator 24.1.0, SVG Export Plug-In . SVG Version: 6.00 Build 0)  -->
<svg version="1.1" id="圖層_1" xmlns="http://www.w3.org/2000/svg" xmlns:xlink="http://www.w3.org/1999/xlink" x="0px" y="0px"
	 viewBox="0 0 238.3 226" enable-background="new 0 0 238.3 226" xml:space="preserve">
<g id="圖層_2_1_">
	<g id="圖層_1-2">
		<path fill="#FF0000" d="M110.1,225.4c-23.9-7.4-43.5-23-61.2-39.4c-16.5-15.3-32.3-32.1-40.7-52.2c-8.5-20.5-8.7-42.9-8-64.7
			c0.6-17.2,3-36.5,17.7-47.2c6.3-4.6,14.2-7,22-9.1C50.6,9.8,62,7.2,72.7,10c15.8,4.1,25.2,18.4,33.1,31.5l21,35
			c4.2-18.3,8.7-37.1,20.3-52.5s32-26.9,52.2-23.3c16.5,2.9,29.6,15.6,35.2,30s4.4,30.4,0.4,45.3s-10.8,29-16.6,43.4
			c-8,19.8-14.2,40.3-18.5,61.2c-1.2,6-2.3,12.2-5.7,17.4c-4.2,6.6-11.4,11.1-18.7,14.9c-19.4,10.2-43.1,17.5-63.9,9.8"/>
	</g>
</g>
</svg>
