<?xml version="1.0" encoding="utf-8"?>
<!-- Generator: Adobe Illustrator 24.1.0, SVG Export Plug-In . SVG Version: 6.00 Build 0)  -->
<svg version="1.1" id="圖層_1" xmlns="http://www.w3.org/2000/svg" xmlns:xlink="http://www.w3.org/1999/xlink" x="0px" y="0px"
	 viewBox="0 0 56 105.4" enable-background="new 0 0 56 105.4" xml:space="preserve">
<g id="圖層_2_1_">
	<g id="圖層_1-2">
		<path fill="#FFFF00" d="M37.6,4c-8.7,12.3-17,24.8-24.9,37.6c0.4-1.9,3.1-1.9,4.9-1.5c11.9,2.9,23.5,7,34.6,12.2
			c1.4,0.7,2.8,1.4,3.5,2.8c0.9,1.9-0.1,4.1-1.1,6C46.1,76.9,36,91.8,24.3,105.4l-6.8-5.8c4.2-15.2,10.7-29.7,19.3-43
			c-10.7-2.8-21.2-5.9-31.6-9.4C2.9,46.4,0,45.1,0,42.5c0.1-1,0.4-2.1,1-2.9C8.5,25.8,17,12.6,26.3,0l6.2,4.2"/>
	</g>
</g>
</svg>
