<svg xmlns="http://www.w3.org/2000/svg" viewBox="0 0 97.53 179.25"><defs><style>.cls-1{fill:#ff0;}</style></defs><title>資產 36</title><g id="圖層_2" data-name="圖層 2"><g id="圖層_1-2" data-name="圖層 1"><path class="cls-1" d="M57.51,4.94q-19.08,33.44-36.14,68c.36-3.28,4.89-3.79,8.15-3.33a305.64,305.64,0,0,1,60.7,15c2.44.88,5,1.93,6.39,4.15,1.86,3.08.55,7-.84,10.34a426.63,426.63,0,0,1-44.22,80.15l-12.41-8.66A263.25,263.25,0,0,1,64.9,94.47Q37.15,89.94,9.73,83.63C5.54,82.67.5,80.76,0,76.49a10.59,10.59,0,0,1,1.21-5.13A587.23,587.23,0,0,1,37.7,0L48.88,6.14"/></g></g></svg>