<svg xmlns="http://www.w3.org/2000/svg" viewBox="0 0 56.05 105.42"><defs><style>.cls-1{fill:#ff0;}</style></defs><title>資產 35</title><g id="圖層_2" data-name="圖層 2"><g id="圖層_1-2" data-name="圖層 1"><path class="cls-1" d="M37.58,4q-13,18.45-24.92,37.64c.39-1.89,3.07-1.93,4.95-1.48A179.6,179.6,0,0,1,52.19,52.35c1.38.65,2.84,1.41,3.5,2.78.92,1.9-.07,4.13-1.07,6a250.41,250.41,0,0,1-30.32,44.3l-6.76-5.75a154.37,154.37,0,0,1,19.32-43q-16-4.2-31.6-9.43C2.87,46.45,0,45.06,0,42.54a6.15,6.15,0,0,1,1-2.93A343.7,343.7,0,0,1,26.29,0l6.19,4.21"/></g></g></svg>