<?xml version="1.0" encoding="utf-8"?>
<!-- Generator: Adobe Illustrator 24.1.0, SVG Export Plug-In . SVG Version: 6.00 Build 0)  -->
<svg version="1.1" id="圖層_1" xmlns="http://www.w3.org/2000/svg" xmlns:xlink="http://www.w3.org/1999/xlink" x="0px" y="0px"
	 viewBox="0 0 213 375.1" style="enable-background:new 0 0 213 375.1;" xml:space="preserve">
<style type="text/css">
	.st0{fill:#C69C6D;}
	.st1{fill:#42210B;}
	.st2{fill:#F0A6AF;}
</style>
<g id="圖層_2_1_">
	<g id="圖層_1-2">
		<path class="st0" d="M156.7,348.9c0.5,2-0.7,4.1-2.3,4.1c-7.8,0-29.3-0.7-29.3-8.2c-0.1-2.3-0.6-4.6-1.4-6.8l20.2-9.2
			C152.6,337.1,155.6,344.5,156.7,348.9z"/>
		<path class="st0" d="M188.4,218.6c-6.4-2.2-16.9-5.8-28.9-7.5c-1.6-0.2-2.8-1.6-2.7-3.2c0.2-13.7-1.6-25.6-6.5-33.2
			c0,0,21.8,34.1,48.5-6.4c25-37.9-35.1-66.5-43-70c-0.5-0.2-1.1-0.3-1.7-0.3h-0.2C152,77.5,142.7-9.6,119.3,0.9
			c-18.8,8.4,1.7,64,15.1,95.6c0.7,1.6-0.1,3.5-1.7,4.2c-0.3,0.1-0.6,0.2-0.8,0.2l0,0l-4.4-2.5C116.7,71.8,87.3,5.9,69.4,20.3
			c-14.8,12,15.6,55.4,37.5,83c1.1,1.4,0.9,3.4-0.5,4.5c-0.1,0.1-0.2,0.1-0.3,0.2c-20.7,13.3-36.3,31.2-52.2,47.2
			C27.8,181.7,2.7,252,10.6,274.1c7.1,19.8,50.4,42.3,59,46.6c0.9,0.5,1.6,1.4,1.7,2.4l1.2,9.4c0.2,1.5,1.4,2.6,2.8,2.8l16.3,1.6
			c0.8,0.1,1.5,0.4,2,1c3.6,4,17.9,20.3,17.9,28.9c0,7.5,28.9,8.2,39.3,8.2c1.8,0,3.2-1.5,3.1-3.2c0-0.3-0.1-0.6-0.1-0.9
			c-1.4-4.6-5.7-12.4-18.7-21c-17.8-11.8-7-22.1-4-24.5c0.5-0.4,0.8-0.9,1-1.5c2.2-6.6,15.8-47.6,21.7-86.2c0.3-1.7,1.9-2.9,3.6-2.7
			c0.2,0,0.4,0.1,0.6,0.1c3.1,1.1,6.2,1.9,9.4,2.5c18.9,3.7,42.5,0.1,45.1-4.7C215.6,227.9,194.5,220.7,188.4,218.6z"/>
		<path class="st1" d="M153,176.3c-8.2,0.7-15.9,3.4-23.2,6.4c-18.1,7.2-35,17.1-50.1,29.4c-4.6,3.8-9.1,8-10.8,12.8
			c4.5,0.1,9.4,0.1,13.2-1.9c1.3-0.8,2.5-1.7,3.7-2.7c4-3.5,8.2-6.7,12.7-9.6c15.1-9.8,31.9-16.9,49.5-20.8c1.1-0.2,2.2-0.6,3.1-1.1
			c0.5-0.4,0.9-0.9,1.2-1.5c1.6-2.8,2.1-6.1,1.4-9.2"/>
		<path class="st2" d="M113.1,101c1.6,2.1,3.2,4.1,4.8,6.2l2.8-2.4c0.8-0.7,1.7-1.5,2.5-2.2c-1-1.9-1.8-3.9-2.7-5.9
			c-5.8-12.6-13.8-24.3-21.7-36L77.2,29.4c-0.3-0.5-0.7-0.9-1.3-1c-1.4-0.2-1.9,1.6-1.7,2.8c1.4,8.5,2.8,17.2,6.5,25.1
			c3.1,6.6,7.6,12.5,12.1,18.4L113.1,101z"/>
		<path class="st2" d="M119.9,21.8c-0.4-2.5-0.7-5-1.1-7.5c1.1,0,2.3,0.1,3.4,0.1s2,0.1,3,0.1c0.7,2,1.5,4,2.2,6
			c4.8,12.9,7.6,26.4,10.3,39.9c2.5,12.1,4.9,24.1,7.4,36.2c0.2,0.5,0.2,1.1-0.1,1.6c-0.7,1-2.2-0.1-2.9-1.1
			c-4.8-7.2-9.7-14.4-12.6-22.6c-2.5-6.8-3.6-13.9-4.7-21C123.1,43,121.5,32.4,119.9,21.8z"/>
		<path class="st1" d="M156.2,226.6c-7.3-1.7-14.9-3.3-22.8-2.2c-40,5.6-81.5-2.9-113.5-23.3l-1,0.9c-12,9.8-17.9,24.5-18.6,38.7
			s0.1,29,8.7,41.1c2.8,3.9-10.9,1.8,7,12.4c7.5,4.5,9.6-2.2,12.3,8.9c3.2,13.6,47.7,36.7,74.2,43.5c1.9,0.5,3.2,2.7,5.6,2
			c1.8-0.5,3.1-1.5,5.4-1.6c10.3-0.4,18.7-8.9,28-13.3c1.8-0.8,3.7-1.8,4.6-3.4c0.6-1.2,0.9-2.6,0.8-4c0.1-6.3-0.4-12.6-1.4-18.9
			c-0.2-1.7,0.9-3.2,2.6-3.5c0.3,0,0.6,0,0.9,0l8.8,1.1c0.8,0.2,1.7,0.1,2.5-0.1c1.6-0.7,1.9-2.7,1.9-4.3l-0.2-27.5
			c-0.1-9.9-0.2-19.8-0.2-29.7C161.6,237.5,170.3,230,156.2,226.6z"/>
		<circle cx="187.7" cy="144.9" r="4.2"/>
		<path class="st0" d="M150.2,192.5l15.4,0.5c3,0,6,0.3,9,0.9c5.8,1.4,10.7,4.9,15.5,8.4c0.7,0.4,1.2,1,1.4,1.7
			c0.3,1.4-1.2,2.4-2.5,2.9c-11.9,4.9-25.1,5.4-37.4,1.4"/>
	</g>
</g>
</svg>
