<svg xmlns="http://www.w3.org/2000/svg" viewBox="0 0 84.75 149.25"><defs><style>.cls-1{fill:#c69c6d;}.cls-2{fill:#42210b;}.cls-3{fill:#f0a6af;}</style></defs><title>資產 33</title><g id="圖層_2" data-name="圖層 2"><g id="圖層_1-2" data-name="圖層 1"><path class="cls-1" d="M62.34,138.84c.19.81-.26,1.64-.9,1.64-3.1,0-11.66-.27-11.67-3.26a8.72,8.72,0,0,0-.57-2.72l8-3.64C60.74,134.13,61.94,137.09,62.34,138.84Z"/><path class="cls-1" d="M75,87a61.85,61.85,0,0,0-11.49-3,1.27,1.27,0,0,1-1.08-1.27c.08-5.46-.62-10.17-2.57-13.22,0,0,8.67,13.55,19.29-2.56C89.06,51.89,65.13,40.51,62,39.1a1.23,1.23,0,0,0-.68-.11h-.08C60.49,30.85,56.77-3.83,47.48.35c-7.46,3.35.66,25.46,6,38.06a1.26,1.26,0,0,1-1,1.75h0l-1.75-1c-4.32-10.56-16-36.81-23.13-31.07-5.91,4.77,6.19,22,14.92,33a1.25,1.25,0,0,1-.3,1.84C34,48.25,27.78,55.37,21.49,61.74,11,72.32,1.08,100.29,4.21,109.06,7,117,24.26,125.9,27.71,127.62a1.29,1.29,0,0,1,.69,1l.49,3.75a1.28,1.28,0,0,0,1.14,1.1l6.47.63a1.24,1.24,0,0,1,.82.42c1.45,1.59,7.11,8.07,7.13,11.51,0,3,11.48,3.25,15.64,3.25a1.27,1.27,0,0,0,1.21-1.64c-.57-1.82-2.28-5-7.44-8.38-7.06-4.69-2.78-8.77-1.59-9.72a1.32,1.32,0,0,0,.4-.58c.89-2.65,6.27-19,8.63-34.32a1.26,1.26,0,0,1,1.65-1,30.24,30.24,0,0,0,3.73,1c7.51,1.48,16.91,0,18-1.87S77.39,87.81,75,87Z"/><path class="cls-2" d="M60.88,70.16a32.64,32.64,0,0,0-9.22,2.53,76.78,76.78,0,0,0-20,11.69c-1.84,1.52-3.61,3.18-4.28,5.1,1.79,0,3.76.06,5.24-.74a8.46,8.46,0,0,0,1.45-1.09,49.12,49.12,0,0,1,5-3.84,60,60,0,0,1,19.71-8.27,3.28,3.28,0,0,0,1.25-.46,1.72,1.72,0,0,0,.47-.58,5.14,5.14,0,0,0,.55-3.67"/><path class="cls-3" d="M45,40.18c.62.82,1.26,1.64,1.9,2.45l1.11-1,1-.88c-.39-.77-.73-1.56-1.08-2.35a97.35,97.35,0,0,0-8.65-14.32L30.74,11.69a.82.82,0,0,0-.51-.42c-.56-.08-.74.65-.66,1.13a37.9,37.9,0,0,0,2.59,10A40.23,40.23,0,0,0,37,29.71Z"/><path class="cls-3" d="M47.7,8.69c-.15-1-.29-2-.43-3l1.34,0,1.21,0c.27.81.59,1.6.89,2.4A104.13,104.13,0,0,1,54.82,24.1q1.47,7.2,2.93,14.4a.78.78,0,0,1,0,.62c-.3.4-.9,0-1.17-.44a43.38,43.38,0,0,1-5-9,43.28,43.28,0,0,1-1.85-8.37Z"/><path class="cls-2" d="M62.16,90.18a24.45,24.45,0,0,0-9.09-.85c-15.94,2.25-32.43-1.14-45.18-9.26-.13.12-.27.23-.41.34A21.12,21.12,0,0,0,.07,95.81c-.27,5.66.06,11.52,3.48,16.36,1.09,1.55-4.34.72,2.79,4.94,3,1.78,3.81-.89,4.87,3.56,1.29,5.41,19,14.61,29.52,17.3.77.2,1.27,1.07,2.24.81a8.41,8.41,0,0,1,2.14-.65c4.11-.17,7.42-3.53,11.14-5.29a4.12,4.12,0,0,0,1.84-1.35,3.2,3.2,0,0,0,.31-1.58,45.77,45.77,0,0,0-.55-7.5A1.22,1.22,0,0,1,59.24,121l3.52.46a2,2,0,0,0,1,0c.66-.26.76-1,.76-1.69l-.1-11c0-3.94-.06-7.89-.1-11.83C64.29,94.52,67.78,91.5,62.16,90.18Z"/><circle cx="74.68" cy="57.66" r="1.69"/><path class="cls-1" d="M59.79,76.61l6.11.21a18.47,18.47,0,0,1,3.57.36,18.27,18.27,0,0,1,6.19,3.34,1.3,1.3,0,0,1,.57.68c.11.54-.48.94-1,1.16a21.39,21.39,0,0,1-14.87.55"/></g></g></svg>