<?xml version="1.0" encoding="utf-8"?>
<!-- Generator: Adobe Illustrator 24.1.0, SVG Export Plug-In . SVG Version: 6.00 Build 0)  -->
<svg version="1.1" id="圖層_1" xmlns="http://www.w3.org/2000/svg" xmlns:xlink="http://www.w3.org/1999/xlink" x="0px" y="0px"
	 viewBox="0 0 174.3 307" enable-background="new 0 0 174.3 307" xml:space="preserve">
<g id="圖層_2_1_">
	<g id="圖層_1-2">
		<path fill="#FFFFFF" d="M46.1,285.6c-0.4,1.7,0.5,3.4,1.9,3.4c6.4,0,24-0.6,24-6.7c0.1-1.9,0.5-3.8,1.2-5.6l-16.5-7.5
			C49.4,275.9,46.9,282,46.1,285.6z"/>
		<path fill="#FFFFFF" d="M20.1,178.9c7.7-2.8,15.6-4.8,23.6-6.1c1.3-0.2,2.3-1.3,2.2-2.6c-0.2-11.2,1.3-20.9,5.3-27.2
			c0,0-17.8,27.9-39.7-5.3c-20.4-31,28.8-54.4,35.2-57.3c0.4-0.2,0.9-0.3,1.4-0.2h0.2c1.5-16.8,9.2-88.1,28.3-79.5
			C92,7.6,75.3,53.1,64.3,79c-0.6,1.3,0,2.8,1.4,3.4c0.2,0.1,0.5,0.2,0.7,0.2l0,0l3.6-2.1c8.9-21.7,32.9-75.7,47.6-63.9
			c12.2,9.8-12.7,45.4-30.7,67.9c-0.9,1.1-0.7,2.8,0.4,3.7c0.1,0.1,0.1,0.1,0.2,0.1c16.9,10.9,29.7,25.5,42.7,38.6
			c21.5,21.8,42,79.3,35.6,97.3c-5.8,16.2-41.2,34.6-48.3,38.2c-0.8,0.4-1.3,1.1-1.4,2l-1,7.7c-0.2,1.2-1.1,2.1-2.3,2.2l-13.3,1.3
			c-0.6,0.1-1.2,0.4-1.7,0.9c-3,3.3-14.6,16.6-14.7,23.7c0,6.1-23.6,6.7-32.2,6.7c-1.4,0-2.6-1.2-2.6-2.6c0-0.3,0-0.5,0.1-0.8
			c1.2-3.7,4.7-10.2,15.3-17.2c14.5-9.6,5.7-18.1,3.3-20c-0.4-0.3-0.7-0.7-0.8-1.2c-1.8-5.4-12.9-39-17.8-70.6
			c-0.2-1.4-1.5-2.4-3-2.2c-0.1,0-0.3,0.1-0.4,0.1c-2.5,0.9-5.1,1.6-7.7,2.1c-15.5,3-34.8,0.1-37-3.8
			C-2.1,186.5,15.1,180.6,20.1,178.9z"/>
		<path fill="#F7931E" d="M49.1,144.3c6.7,0.6,13,2.8,19,5.2c14.8,5.9,28.6,14,41,24.1c3.8,3.1,7.4,6.6,8.8,10.5
			c-3.7,0.1-7.7,0.1-10.8-1.5c-1.1-0.6-2.1-1.4-3-2.2c-3.3-2.8-6.7-5.5-10.4-7.9c-12.4-8-26.1-13.8-40.5-17
			c-0.9-0.1-1.8-0.5-2.6-0.9c-0.4-0.3-0.8-0.7-1-1.2c-1.3-2.3-1.7-5-1.1-7.6"/>
		<path fill="#F0A6AF" d="M81.8,82.7c-1.3,1.7-2.6,3.3-3.9,5c-0.8-0.7-1.5-1.3-2.3-2l-2-1.8c0.8-1.6,1.5-3.2,2.2-4.8
			c4.7-10.3,11.2-19.9,17.8-29.4L111.1,24c0.2-0.4,0.6-0.7,1-0.9c1.1-0.2,1.5,1.3,1.4,2.3c-1.2,7-2.3,14-5.3,20.5
			c-2.5,5.4-6.2,10.2-9.9,15.1L81.8,82.7z"/>
		<path fill="#F0A6AF" d="M76.2,17.9c0.3-2,0.6-4.1,0.9-6.1c-0.9,0-1.8,0.1-2.8,0.1L71.9,12c-0.6,1.7-1.2,3.3-1.8,4.9
			c-3.9,10.5-6.2,21.6-8.5,32.7l-6,29.6c-0.1,0.4-0.1,0.9,0.1,1.3c0.6,0.8,1.8-0.1,2.4-0.9C62,73.7,66,67.7,68.4,61.1
			c2-5.5,2.9-11.4,3.8-17.2L76.2,17.9z"/>
		<path fill="#F7931E" d="M46.5,185.5c6-1.4,12.2-2.7,18.7-1.8c32.8,4.6,66.7-2.4,92.9-19l0.9,0.7c9.8,8,14.7,20.1,15.2,31.7
			s-0.1,23.7-7.1,33.6c-2.2,3.2,8.9,1.5-5.7,10.2c-6.2,3.6-7.9-1.8-10,7.3c-2.6,11.1-39,30.1-60.7,35.6c-1.6,0.4-2.6,2.2-4.6,1.7
			c-1.5-0.4-2.6-1.3-4.4-1.3c-8.4-0.4-15.3-7.3-22.9-10.9c-1.5-0.7-3-1.5-3.8-2.8c-0.5-1-0.7-2.1-0.6-3.2
			c-0.1-5.2,0.3-10.3,1.1-15.4c0.2-1.4-0.8-2.6-2.2-2.8c-0.2,0-0.5,0-0.7,0l-7.2,0.9c-0.7,0.1-1.3,0.1-2-0.1
			c-1.3-0.6-1.6-2.2-1.5-3.5l0.2-22.5c0.1-8.1,0.1-16.2,0.2-24.4C42.1,194.4,34.9,188.2,46.5,185.5z"/>
		<circle cx="20.7" cy="118.6" r="3.5"/>
		<path fill="#FFFFFF" d="M51.3,157.6L38.8,158c-2.5,0-4.9,0.2-7.3,0.7c-4.7,1.1-8.8,4-12.7,6.9c-0.5,0.3-1,0.8-1.2,1.4
			c-0.2,1.1,1,1.9,2,2.4c9.7,4,20.6,4.4,30.6,1.1"/>
	</g>
</g>
</svg>
