<svg xmlns="http://www.w3.org/2000/svg" viewBox="0 0 174.34 307.01"><defs><style>.cls-1{fill:#fff;}.cls-2{fill:#f7931e;}.cls-3{fill:#f0a6af;}</style></defs><title>資產 23</title><g id="圖層_2" data-name="圖層 2"><g id="圖層_1-2" data-name="圖層 1"><path class="cls-1" d="M46.1,285.58c-.39,1.68.54,3.38,1.86,3.38,6.38,0,24-.56,24-6.7a17.86,17.86,0,0,1,1.18-5.59l-16.52-7.5C49.4,275.9,46.93,282,46.1,285.58Z"/><path class="cls-1" d="M20.12,178.91a127.61,127.61,0,0,1,23.63-6.11A2.6,2.6,0,0,0,46,170.19C45.82,159,47.26,149.27,51.28,143c0,0-17.84,27.87-39.69-5.27-20.44-31,28.77-54.41,35.23-57.31a2.62,2.62,0,0,1,1.41-.21l.16,0C49.92,63.45,57.55-7.89,76.67.72,92,7.62,75.31,53.1,64.28,79a2.6,2.6,0,0,0,2.06,3.61h0l3.6-2.08c8.89-21.72,32.92-75.72,47.57-63.91C129.67,26.43,104.78,62,86.82,84.57a2.6,2.6,0,0,0,.62,3.8c16.94,10.88,29.74,25.52,42.69,38.62,21.49,21.76,42,79.3,35.55,97.34-5.79,16.24-41.25,34.64-48.34,38.19a2.63,2.63,0,0,0-1.42,2l-1,7.71a2.6,2.6,0,0,1-2.33,2.25l-13.31,1.31a2.68,2.68,0,0,0-1.69.85c-3,3.29-14.63,16.61-14.66,23.68,0,6.13-23.62,6.69-32.17,6.7a2.61,2.61,0,0,1-2.49-3.38c1.16-3.74,4.68-10.18,15.3-17.23,14.53-9.65,5.71-18.06,3.27-20A2.61,2.61,0,0,1,66,265.2c-1.83-5.44-12.9-39-17.75-70.6a2.61,2.61,0,0,0-3.4-2.1,59.22,59.22,0,0,1-7.68,2.08c-15.45,3-34.78.09-36.95-3.83C-2.13,186.52,15.15,180.61,20.12,178.91Z"/><path class="cls-2" d="M49.1,144.31c6.68.61,13,2.78,19,5.2a158.11,158.11,0,0,1,41,24.05c3.79,3.13,7.44,6.55,8.81,10.5-3.68.09-7.72.11-10.77-1.53a17,17,0,0,1-3-2.24,101.28,101.28,0,0,0-10.37-7.89,123.56,123.56,0,0,0-40.55-17,6.85,6.85,0,0,1-2.57-.94,3.68,3.68,0,0,1-1-1.19,10.54,10.54,0,0,1-1.13-7.55"/><path class="cls-3" d="M81.78,82.66q-1.94,2.52-3.91,5c-.76-.66-1.53-1.32-2.28-2l-2-1.81c.79-1.59,1.49-3.22,2.22-4.84C80.5,68.7,87.06,59.13,93.59,49.6L111.11,24a1.66,1.66,0,0,1,1-.85c1.14-.18,1.52,1.32,1.36,2.32-1.15,7-2.32,14-5.34,20.54-2.5,5.39-6.22,10.25-9.91,15.07Z"/><path class="cls-3" d="M76.21,17.87q.47-3.06.9-6.12c-.92,0-1.85.05-2.77.09L71.86,12c-.56,1.66-1.21,3.29-1.83,4.93-3.94,10.55-6.21,21.64-8.46,32.68l-6,29.62a1.59,1.59,0,0,0,.1,1.27c.6.82,1.84-.06,2.4-.89C62,73.69,66,67.74,68.4,61.09c2-5.53,2.92-11.39,3.82-17.21Z"/><path class="cls-2" d="M46.48,185.51c6-1.41,12.21-2.68,18.7-1.77,32.77,4.63,66.7-2.35,92.92-19l.85.71c9.81,8,14.68,20.05,15.23,31.68s-.11,23.69-7.14,33.65c-2.25,3.18,8.91,1.46-5.74,10.16-6.16,3.65-7.85-1.84-10,7.3-2.65,11.14-39,30.07-60.72,35.6-1.58.4-2.61,2.2-4.59,1.67-1.49-.39-2.55-1.26-4.41-1.33-8.45-.35-15.27-7.27-22.91-10.9-1.46-.69-3-1.47-3.78-2.78a6.27,6.27,0,0,1-.64-3.24,93.55,93.55,0,0,1,1.12-15.43A2.52,2.52,0,0,0,52.48,249l-7.24.94a4.14,4.14,0,0,1-2-.08c-1.35-.55-1.56-2.18-1.55-3.49l.19-22.51q.1-12.18.2-24.35C42.09,194.42,34.92,188.22,46.48,185.51Z"/><circle cx="20.73" cy="118.61" r="3.48"/><path class="cls-1" d="M51.35,157.58,38.78,158a36.77,36.77,0,0,0-7.34.74c-4.72,1.13-8.79,4-12.73,6.87A2.56,2.56,0,0,0,17.54,167c-.24,1.11,1,1.94,2,2.38a44,44,0,0,0,30.59,1.15"/></g></g></svg>