<?xml version="1.0" encoding="utf-8"?>
<!-- Generator: Adobe Illustrator 24.1.0, SVG Export Plug-In . SVG Version: 6.00 Build 0)  -->
<svg version="1.1" id="圖層_1" xmlns="http://www.w3.org/2000/svg" xmlns:xlink="http://www.w3.org/1999/xlink" x="0px" y="0px"
	 viewBox="0 0 222.1 377.6" enable-background="new 0 0 222.1 377.6" xml:space="preserve">
<g id="圖層_2_1_">
	<g id="圖層_1-2">
		<circle cx="25.5" cy="145.9" r="4.3"/>
		<path fill="#C69C6D" d="M160.1,156.2c-15.9-16.1-31.7-34.1-52.5-47.5c-1.5-0.9-1.9-2.9-1-4.4c0.1-0.1,0.1-0.2,0.2-0.3
			c22.1-27.8,52.7-71.5,37.8-83.6C126.5,5.9,97,72.3,86,99l-4.4,2.6c-1.8-0.2-3-1.8-2.8-3.6c0-0.3,0.1-0.6,0.2-0.8
			C92.6,65.3,113.2,9.4,94.3,0.9C70.8-9.7,61.4,78,59.5,98.7h-0.2c-0.6-0.1-1.2,0-1.7,0.3c-7.9,3.6-68.5,32.4-43.3,70.5
			c26.9,40.8,48.8,6.5,48.8,6.5c-3,4.7-4.8,10.9-5.8,18.1l-9.6,0.3c-3,0-6,0.3-9,0.9c-5.8,1.4-10.8,4.9-15.6,8.4
			c-0.7,0.4-1.2,1-1.5,1.7c-0.3,1.4,1.2,2.4,2.5,2.9c10.1,4.2,21.1,5.2,31.8,3c-0.5,0.7-1.2,1.1-2.1,1.2
			c-12.1,1.7-22.6,5.3-29.1,7.5c-6.1,2.1-27.4,9.4-24.5,14.6c2.7,4.8,26.5,8.5,45.4,4.7c3.2-0.6,6.4-1.5,9.4-2.6
			c1.7-0.6,3.5,0.3,4,2c0.1,0.2,0.1,0.4,0.1,0.6c6,38.9,19.6,80.1,21.8,86.8c0.2,0.6,0.5,1.1,1,1.5c0.2,0.2,0.5,0.4,0.8,0.6
			l-4.7-2.6c-8.9,10.1-11.9,19.2-13,24.6c-0.5,2.5,0.7,5.1,2.3,5.1s3.9,0,6.4-0.2c-9.8,7.5-13.4,14.1-14.6,18.2
			c-0.5,1.7,0.4,3.5,2.1,4c0.3,0.1,0.6,0.1,1,0.1c10.5,0,39.5-0.7,39.6-8.2c0-8.7,14.4-25.1,18-29.1c0.5-0.6,1.3-0.9,2.1-1l16.4-1.6
			c1.5-0.1,2.7-1.3,2.9-2.8l1.3-9.5c0.1-1.1,0.8-2,1.7-2.5c8.7-4.4,52.3-27,59.4-47C211.7,253.7,186.5,183,160.1,156.2z"/>
		<path fill="#F7931E" d="M64.9,232.5c7.4-1.7,15-3.3,23-2.2c40.3,5.7,82-2.9,114.3-23.4l1.1,0.9c12.1,9.9,18.1,24.7,18.7,39
			s-0.1,29.1-8.8,41.4c-2.8,3.9,11,1.8-7.1,12.5c-7.6,4.5-9.6-2.3-12.3,9c-3.3,13.7-48,37-74.7,43.8c-1.9,0.5-3.2,2.7-5.7,2.1
			c-1.8-0.5-3.1-1.5-5.4-1.6c-10.4-0.4-18.8-8.9-28.2-13.4c-1.8-0.9-3.7-1.8-4.7-3.4c-0.6-1.2-0.9-2.6-0.8-4
			c-0.1-6.4,0.4-12.7,1.4-19c0.2-1.7-0.9-3.3-2.6-3.5c-0.3,0-0.6,0-0.9,0l-8.9,1.2c-0.8,0.2-1.7,0.1-2.5-0.1
			c-1.7-0.7-1.9-2.7-1.9-4.3l0.2-27.7c0.1-10,0.2-20,0.2-30C59.5,243.4,50.7,235.8,64.9,232.5z"/>
		<path fill="#F7931E" d="M60.4,181.8c8.2,0.8,16,3.4,23.3,6.4c18.2,7.3,35.2,17.2,50.5,29.6c4.7,3.8,9.1,8,10.8,12.9
			c-4.5,0.1-9.5,0.1-13.2-1.9c-1.3-0.8-2.6-1.7-3.7-2.8c-4-3.5-8.3-6.7-12.8-9.7c-15.2-9.9-32.1-17-49.9-20.9
			c-1.1-0.2-2.2-0.6-3.2-1.2c-0.5-0.4-0.9-0.9-1.2-1.5c-1.6-2.8-2.1-6.1-1.4-9.3"/>
		<path fill="#F0A6AF" d="M100.6,101.7c-1.6,2.1-3.2,4.1-4.8,6.2c-0.9-0.8-1.9-1.6-2.8-2.5s-1.7-1.5-2.5-2.2c1-2,1.8-4,2.7-5.9
			C99,84.5,107.1,72.7,115.1,61l21.5-31.4c0.3-0.5,0.7-0.9,1.3-1c1.4-0.2,1.9,1.6,1.7,2.9c-1.4,8.6-2.9,17.3-6.6,25.3
			c-3.1,6.6-7.7,12.6-12.2,18.5L100.6,101.7z"/>
		<path fill="#F0A6AF" d="M95.2,19.1c0.4-2.5,0.7-5,1.1-7.5l-3.4,0.1l-3.1,0.1c-0.7,2-1.5,4.1-2.2,6.1c-4.8,13-7.6,26.6-10.4,40.2
			c-2.5,12.1-4.9,24.3-7.4,36.4c-0.2,0.5-0.1,1.1,0.1,1.6c0.7,1,2.3-0.1,3-1.1c4.8-7.2,9.7-14.6,12.7-22.7c2.5-6.8,3.6-14,4.7-21.2
			L95.2,19.1z"/>
		<circle cx="29.8" cy="145.9" r="4.3"/>
	</g>
</g>
</svg>
