<svg xmlns="http://www.w3.org/2000/svg" viewBox="0 0 212.99 375.07"><defs><style>.cls-1{fill:#c69c6d;}.cls-2{fill:#42210b;}.cls-3{fill:#f0a6af;}</style></defs><title>資產 24</title><g id="圖層_2" data-name="圖層 2"><g id="圖層_1-2" data-name="圖層 1"><path class="cls-1" d="M156.67,348.9c.48,2.05-.67,4.13-2.27,4.13-7.8,0-29.3-.69-29.32-8.19a22.12,22.12,0,0,0-1.45-6.83l20.18-9.16C152.63,337.07,155.65,344.51,156.67,348.9Z"/><path class="cls-1" d="M188.41,218.58c-6.39-2.19-16.85-5.76-28.87-7.47a3.17,3.17,0,0,1-2.73-3.18c.2-13.73-1.56-25.56-6.47-33.23,0,0,21.79,34.06,48.49-6.43,25-37.88-35.15-66.48-43-70a3.19,3.19,0,0,0-1.72-.26l-.2,0C152,77.52,142.67-9.63,119.32.88c-18.75,8.43,1.66,64,15.14,95.63a3.19,3.19,0,0,1-2.52,4.42h0l-4.4-2.54C116.68,71.85,87.32,5.88,69.42,20.31c-14.85,12,15.56,55.39,37.49,83a3.18,3.18,0,0,1-.75,4.65C85.47,121.26,69.82,139.14,54,155.15,27.75,181.73,2.72,252,10.58,274.07,17.65,293.9,61,316.39,69.63,320.72a3.2,3.2,0,0,1,1.73,2.43l1.25,9.42a3.2,3.2,0,0,0,2.85,2.76l16.27,1.6a3.17,3.17,0,0,1,2,1c3.64,4,17.88,20.3,17.92,28.93,0,7.5,28.85,8.18,39.3,8.18a3.18,3.18,0,0,0,3-4.12c-1.42-4.57-5.72-12.44-18.69-21.05-17.75-11.79-7-22.06-4-24.45a3.16,3.16,0,0,0,1-1.45c2.24-6.65,15.75-47.62,21.68-86.25a3.18,3.18,0,0,1,4.16-2.56,72.2,72.2,0,0,0,9.37,2.53c18.88,3.73,42.5.11,45.15-4.68C215.59,227.88,194.48,220.66,188.41,218.58Z"/><path class="cls-2" d="M153,176.31c-8.16.74-15.89,3.39-23.19,6.35a193.23,193.23,0,0,0-50.14,29.39c-4.63,3.82-9.09,8-10.76,12.82,4.5.11,9.44.14,13.15-1.87a20.24,20.24,0,0,0,3.65-2.74,125.52,125.52,0,0,1,12.67-9.64,151.2,151.2,0,0,1,49.54-20.79,8.57,8.57,0,0,0,3.15-1.15,4.43,4.43,0,0,0,1.16-1.46,12.79,12.79,0,0,0,1.38-9.22"/><path class="cls-3" d="M113.07,101c1.58,2.06,3.18,4.12,4.79,6.16l2.78-2.44c.83-.73,1.65-1.47,2.47-2.22-1-1.93-1.82-3.93-2.72-5.9-5.75-12.64-13.76-24.34-21.74-36L77.25,29.37a2,2,0,0,0-1.29-1c-1.39-.21-1.86,1.62-1.66,2.83,1.41,8.54,2.83,17.16,6.52,25.1,3.06,6.58,7.6,12.52,12.11,18.41Z"/><path class="cls-3" d="M119.88,21.83q-.57-3.73-1.1-7.48c1.13,0,2.26.07,3.38.12s2,.09,3,.14c.68,2,1.48,4,2.23,6,4.82,12.88,7.58,26.43,10.33,39.92q3.69,18.09,7.37,36.19A2,2,0,0,1,145,98.3c-.74,1-2.25-.07-2.94-1.09-4.82-7.18-9.68-14.45-12.65-22.58-2.47-6.75-3.58-13.91-4.67-21Q122.32,37.71,119.88,21.83Z"/><path class="cls-2" d="M156.2,226.64c-7.33-1.72-14.91-3.28-22.84-2.16-40,5.65-81.49-2.87-113.52-23.26l-1,.86c-12,9.79-17.94,24.5-18.61,38.7s.14,29,8.72,41.12c2.75,3.89-10.88,1.78,7,12.41,7.53,4.47,9.59-2.24,12.25,8.93,3.24,13.6,47.69,36.73,74.18,43.49,1.93.49,3.19,2.68,5.61,2,1.83-.49,3.11-1.54,5.39-1.63,10.32-.43,18.66-8.88,28-13.32,1.78-.84,3.68-1.79,4.62-3.39a7.78,7.78,0,0,0,.78-4,115.2,115.2,0,0,0-1.37-18.85,3.07,3.07,0,0,1,3.49-3.45l8.84,1.15a5,5,0,0,0,2.5-.1c1.65-.67,1.91-2.66,1.89-4.26l-.23-27.51q-.12-14.86-.25-29.74C161.57,237.53,170.33,230,156.2,226.64Z"/><circle cx="187.66" cy="144.9" r="4.25"/><path class="cls-1" d="M150.25,192.52l15.36.53a46.42,46.42,0,0,1,9,.91c5.77,1.38,10.74,4.92,15.54,8.39a3.17,3.17,0,0,1,1.44,1.7c.29,1.36-1.21,2.37-2.49,2.91a53.78,53.78,0,0,1-37.37,1.41"/></g></g></svg>