<svg xmlns="http://www.w3.org/2000/svg" viewBox="0 0 222.14 377.6"><defs><style>.cls-1{fill:#c69c6d;}.cls-2{fill:#f7931e;}.cls-3{fill:#f0a6af;}</style></defs><title>資產 25</title><g id="圖層_2" data-name="圖層 2"><g id="圖層_1-2" data-name="圖層 1"><circle cx="25.5" cy="145.88" r="4.28"/><path class="cls-1" d="M160.05,156.19c-15.92-16.12-31.67-34.12-52.5-47.5a3.18,3.18,0,0,1-.76-4.67c22.08-27.81,52.7-71.52,37.75-83.57C126.52,5.92,97,72.33,86,99.05l-4.43,2.56a3.21,3.21,0,0,1-2.53-4.45C92.63,65.31,113.17,9.37,94.3.88,70.79-9.7,61.39,78,59.52,98.68l-.2,0a3.26,3.26,0,0,0-1.74.26c-7.94,3.57-68.46,32.36-43.32,70.49,26.87,40.77,48.81,6.48,48.81,6.48-3,4.67-4.82,10.9-5.75,18.14l-9.62.33a46.26,46.26,0,0,0-9,.92c-5.81,1.38-10.81,4.95-15.65,8.44a3.25,3.25,0,0,0-1.45,1.71c-.29,1.37,1.22,2.39,2.51,2.94a54.17,54.17,0,0,0,31.8,3,3.16,3.16,0,0,1-2.07,1.21c-12.11,1.72-22.63,5.32-29.06,7.52-6.11,2.09-27.37,9.36-24.48,14.56,2.67,4.83,26.45,8.47,45.45,4.71a71.7,71.7,0,0,0,9.44-2.55,3.2,3.2,0,0,1,4.18,2.58c6,38.89,19.58,80.14,21.84,86.83a3.12,3.12,0,0,0,1,1.46c.22.18.47.39.76.65l-4.66-2.58c-8.88,10.09-11.92,19.24-13,24.62-.47,2.52.68,5.07,2.29,5.07s3.86,0,6.36-.17c-9.83,7.48-13.38,14.15-14.64,18.21a3.2,3.2,0,0,0,3.06,4.16c10.52,0,39.53-.69,39.56-8.24,0-8.69,14.38-25.07,18-29.12a3.23,3.23,0,0,1,2.07-1l16.37-1.61a3.21,3.21,0,0,0,2.87-2.78l1.26-9.48a3.22,3.22,0,0,1,1.74-2.45c8.72-4.36,52.34-27,59.45-47C211.69,253.72,186.49,183,160.05,156.19Z"/><path class="cls-2" d="M64.89,232.49c7.38-1.73,15-3.3,23-2.17,40.31,5.69,82-2.89,114.28-23.43l1.05.88c12.06,9.85,18.06,24.66,18.74,39s-.15,29.14-8.79,41.39c-2.77,3.92,11,1.8-7.06,12.5-7.58,4.49-9.65-2.26-12.33,9-3.26,13.7-48,37-74.68,43.78-1.95.5-3.22,2.71-5.66,2.06-1.83-.49-3.12-1.55-5.42-1.64-10.39-.44-18.78-8.94-28.18-13.41-1.79-.85-3.7-1.8-4.65-3.42a7.73,7.73,0,0,1-.78-4,114.39,114.39,0,0,1,1.37-19,3.09,3.09,0,0,0-3.51-3.48l-8.9,1.16a5.07,5.07,0,0,1-2.51-.1c-1.67-.67-1.92-2.68-1.91-4.29l.23-27.69q.12-15,.25-30C59.48,243.45,50.67,235.82,64.89,232.49Z"/><path class="cls-2" d="M60.39,181.82c8.21.75,16,3.41,23.35,6.39a194.72,194.72,0,0,1,50.47,29.59c4.67,3.84,9.15,8,10.84,12.9-4.53.12-9.5.15-13.24-1.88a20.09,20.09,0,0,1-3.67-2.75,124.31,124.31,0,0,0-12.76-9.7A152.05,152.05,0,0,0,65.5,195.43a8.45,8.45,0,0,1-3.16-1.16,4.34,4.34,0,0,1-1.17-1.46,12.87,12.87,0,0,1-1.39-9.29"/><path class="cls-3" d="M100.59,101.66c-1.59,2.08-3.2,4.14-4.82,6.2-.93-.82-1.87-1.63-2.8-2.46s-1.66-1.48-2.49-2.23c1-2,1.84-4,2.74-5.94C99,84.5,107.07,72.72,115.11,61l21.54-31.44a2.09,2.09,0,0,1,1.3-1c1.4-.21,1.87,1.63,1.67,2.85-1.41,8.59-2.85,17.28-6.56,25.26-3.08,6.64-7.65,12.61-12.19,18.54Z"/><path class="cls-3" d="M95.18,19.09q.57-3.75,1.1-7.52l-3.4.11-3.06.14c-.68,2-1.48,4.06-2.24,6.08-4.85,13-7.64,26.61-10.41,40.19q-3.7,18.21-7.42,36.43a2,2,0,0,0,.12,1.56c.74,1,2.27-.07,3-1.1,4.85-7.23,9.74-14.55,12.73-22.73,2.49-6.79,3.6-14,4.7-21.17Z"/><circle cx="29.82" cy="145.88" r="4.28"/></g></g></svg>