<svg xmlns="http://www.w3.org/2000/svg" viewBox="0 0 52.77 80.58"><defs><style>.cls-1{fill:#fff;}.cls-2{fill:#c1272d;}.cls-3{fill:#1b1464;}.cls-4{fill:#8c6239;}</style></defs><title>資產 43</title><g id="圖層_2" data-name="圖層 2"><g id="圖層_1-2" data-name="圖層 1"><path class="cls-1" d="M0,36.78c16.09,6.87,32.18-3.19,48.27,1.77q1.45-18.1,2.9-36.06C35.08-4.38,19,5.68,2.9.72Q1.44,18.84,0,36.78Z"/><path class="cls-2" d="M2.67,3.51C18.77,8.6,34.86-1.46,51,5.26c.07-.93.15-1.85.22-2.77C35.08-4.38,19,5.68,2.9.72,2.82,1.65,2.75,2.58,2.67,3.51Z"/><path class="cls-2" d="M2.23,9.07c16.09,5.38,32.18-4.7,48.27,1.71.08-.92.15-1.84.22-2.76C34.63,1.45,18.54,11.53,2.45,6.29,2.38,7.22,2.3,8.15,2.23,9.07Z"/><path class="cls-2" d="M1.78,14.63C17.87,20.3,34,10.21,50.06,16.32c.07-.92.14-1.85.22-2.77C34.19,7.29,18.1,17.37,2,11.85,1.93,12.78,1.86,13.7,1.78,14.63Z"/><path class="cls-2" d="M1.34,20.18c16.09,6,32.18-4.13,48.27,1.69.07-.93.15-1.85.22-2.78-16.09-6-32.18,4.13-48.27-1.68C1.49,18.33,1.41,19.26,1.34,20.18Z"/><path class="cls-2" d="M.89,25.72C17,32,33.07,21.9,49.16,27.42c.08-.93.15-1.85.23-2.78C33.3,19,17.21,29.06,1.11,23,1,23.87,1,24.8.89,25.72Z"/><path class="cls-2" d="M.45,31.25c16.09,6.57,32.18-3.5,48.27,1.73l.22-2.78C32.85,24.82,16.76,34.9.67,28.49.59,29.41.52,30.33.45,31.25Z"/><path class="cls-2" d="M0,36.78c16.09,6.87,32.18-3.19,48.27,1.77.08-.93.15-1.86.23-2.78C32.4,30.67,16.31,40.73.22,34,.15,34.94.07,35.86,0,36.78Z"/><path class="cls-3" d="M24,21.27c8.55-1.09,17.09-2.49,25.64.6q.78-9.72,1.56-19.38C42.62-1.16,34.08,0,25.53,1.08Z"/><path class="cls-1" d="M48.37,5.26l.41-.11a.07.07,0,0,1,.07,0l.38.35c.07.05.14,0,.13-.06l0-.5a.06.06,0,0,1,0-.07l.33-.23c.06,0,0-.14,0-.18l-.44-.21a.11.11,0,0,1-.06-.07C49.09,4,49,3.87,49,3.71s-.12-.11-.16,0-.14.25-.22.37a0,0,0,0,1-.06,0l-.45,0c-.07,0-.1.08-.05.14l.29.43a.1.1,0,0,1,0,.09l-.1.45A.12.12,0,0,0,48.37,5.26Z"/><path class="cls-1" d="M45.07,4.43l.41-.16a.08.08,0,0,1,.08,0l.38.3a.08.08,0,0,0,.13-.08L46,4a.11.11,0,0,1,0-.08l.34-.27a.11.11,0,0,0,0-.17l-.43-.16a.13.13,0,0,1-.07-.06c-.05-.16-.11-.32-.17-.47a.08.08,0,0,0-.15,0c-.07.13-.15.26-.22.4a.1.1,0,0,1-.07,0H44.8a.1.1,0,0,0-.06.16l.3.39a.08.08,0,0,1,0,.08l-.1.47A.1.1,0,0,0,45.07,4.43Z"/><path class="cls-1" d="M41.49,3.94l.41-.2s.05,0,.08,0l.38.26a.09.09,0,0,0,.13-.09l-.05-.49a.11.11,0,0,1,0-.08L42.81,3a.1.1,0,0,0,0-.16l-.43-.11a.11.11,0,0,1-.07-.06l-.17-.45a.08.08,0,0,0-.15,0l-.22.42s0,0-.07,0l-.44,0a.1.1,0,0,0-.06.16l.3.36a.11.11,0,0,1,0,.08l-.11.48C41.36,3.91,41.43,4,41.49,3.94Z"/><path class="cls-1" d="M38.06,3.79l.4-.23a.06.06,0,0,1,.08,0l.38.22c.06,0,.14,0,.13-.1l0-.48a.16.16,0,0,1,0-.09l.34-.34a.1.1,0,0,0,0-.16l-.43-.07a.06.06,0,0,1-.06,0l-.18-.44c0-.07-.11-.07-.15,0l-.22.45a.08.08,0,0,1-.07,0l-.44.08a.1.1,0,0,0-.06.16l.3.34a.08.08,0,0,1,0,.08l-.1.49A.08.08,0,0,0,38.06,3.79Z"/><path class="cls-1" d="M34.19,3.93l.4-.27s.06,0,.08,0l.38.19c.06,0,.14,0,.13-.11l0-.48a.07.07,0,0,1,0-.08l.33-.37a.09.09,0,0,0,0-.16l-.44,0S35,2.6,35,2.57s-.12-.28-.17-.43-.12-.06-.16,0l-.22.46a.09.09,0,0,1-.07,0l-.44.12a.11.11,0,0,0-.06.16l.3.32a.08.08,0,0,1,0,.08l-.1.49A.08.08,0,0,0,34.19,3.93Z"/><path class="cls-1" d="M30.75,4.24,31.16,4a.11.11,0,0,1,.08,0l.38.18c.06,0,.13,0,.13-.11s0-.32-.05-.48a.16.16,0,0,1,0-.09l.34-.38a.09.09,0,0,0,0-.16h-.44a.06.06,0,0,1-.06-.05l-.17-.42a.08.08,0,0,0-.15,0c-.08.16-.15.32-.23.47s0,.06-.06.06l-.45.13a.11.11,0,0,0,0,.17l.29.3a.08.08,0,0,1,0,.08l-.1.5C30.62,4.23,30.69,4.28,30.75,4.24Z"/><path class="cls-1" d="M27.17,4.66l.41-.29a.09.09,0,0,1,.07,0l.38.17c.07,0,.14,0,.13-.12l0-.47a.1.1,0,0,1,0-.09l.33-.39c.06-.07,0-.16,0-.16H28a.06.06,0,0,1-.06,0l-.17-.41c0-.07-.12,0-.16,0s-.14.32-.22.48a.12.12,0,0,1-.06.06l-.45.14a.11.11,0,0,0-.05.17l.29.29a.08.08,0,0,1,0,.08c0,.17-.07.34-.1.5A.07.07,0,0,0,27.17,4.66Z"/><path class="cls-1" d="M47.11,19.17l.41-.13a.09.09,0,0,1,.08,0l.38.33a.07.07,0,0,0,.13-.06c0-.17,0-.33,0-.5a.08.08,0,0,1,0-.07l.34-.25a.11.11,0,0,0,0-.17l-.44-.2a.12.12,0,0,1-.06-.06c-.06-.17-.11-.33-.17-.49s-.12-.1-.15,0-.15.26-.22.39a.09.09,0,0,1-.07,0l-.45,0c-.07,0-.1.08,0,.14l.3.42a.11.11,0,0,1,0,.08L47,19C47,19.12,47.05,19.19,47.11,19.17Z"/><path class="cls-1" d="M43.82,18.49l.4-.18a.08.08,0,0,1,.08,0c.13.09.26.18.38.28a.08.08,0,0,0,.13-.08l0-.49a.08.08,0,0,1,0-.08c.12-.09.23-.19.34-.29s0-.14,0-.16l-.43-.14a.09.09,0,0,1-.06-.06c-.06-.16-.12-.31-.17-.47a.09.09,0,0,0-.16,0l-.22.41a.08.08,0,0,1-.07,0h-.44a.1.1,0,0,0-.06.16l.3.38a.08.08,0,0,1,0,.08l-.1.47A.09.09,0,0,0,43.82,18.49Z"/><path class="cls-1" d="M40.24,18.13l.4-.22a.08.08,0,0,1,.08,0l.38.24a.09.09,0,0,0,.13-.09l0-.49a.11.11,0,0,1,0-.08l.34-.32a.1.1,0,0,0,0-.17l-.43-.09a.1.1,0,0,1-.06-.05l-.18-.45a.08.08,0,0,0-.15,0c-.07.15-.15.29-.22.43a.08.08,0,0,1-.07.05L40,17a.1.1,0,0,0-.06.16l.3.35a.08.08,0,0,1,0,.08l-.1.49A.09.09,0,0,0,40.24,18.13Z"/><path class="cls-1" d="M36.8,18.08l.4-.24a.08.08,0,0,1,.08,0l.38.22a.1.1,0,0,0,.13-.1l0-.49a.07.07,0,0,1,0-.08l.33-.35a.09.09,0,0,0,0-.16l-.44-.06a.06.06,0,0,1-.06,0c-.06-.14-.12-.29-.17-.43a.09.09,0,0,0-.16,0c-.07.15-.14.3-.22.45a.11.11,0,0,1-.07.06l-.44.09a.11.11,0,0,0-.06.16l.3.33a.08.08,0,0,1,0,.08l-.1.49A.08.08,0,0,0,36.8,18.08Z"/><path class="cls-1" d="M32.93,18.3l.41-.27a.08.08,0,0,1,.08,0l.38.19c.06,0,.13,0,.13-.11l0-.48a.16.16,0,0,1,0-.09c.11-.12.22-.25.34-.37a.09.09,0,0,0,0-.16l-.44,0a.07.07,0,0,1-.06,0c-.06-.14-.11-.28-.17-.43a.08.08,0,0,0-.15,0c-.08.15-.15.31-.23.46a.09.09,0,0,1-.06.06l-.45.12a.11.11,0,0,0,0,.17l.3.31a.11.11,0,0,1,0,.08l-.1.49C32.8,18.29,32.87,18.34,32.93,18.3Z"/><path class="cls-1" d="M29.49,18.65l.41-.28a.08.08,0,0,1,.08,0l.38.17c.06,0,.14,0,.13-.11l0-.48a.16.16,0,0,1,0-.09l.34-.39c.05-.06,0-.15,0-.15h-.44a.07.07,0,0,1-.06-.05c-.05-.14-.11-.27-.17-.41s-.12-.06-.15,0l-.22.47a.13.13,0,0,1-.07.06l-.44.13c-.08,0-.11.13-.06.17l.3.3a.11.11,0,0,1,0,.08c0,.17-.07.33-.11.5S29.43,18.7,29.49,18.65Z"/><path class="cls-1" d="M46.25,11.66l.4-.14a.08.08,0,0,1,.08,0l.38.31c.07.05.14,0,.13-.07l0-.49a.07.07,0,0,1,0-.08l.33-.26a.1.1,0,0,0,0-.17l-.44-.17a.11.11,0,0,1-.06-.07l-.17-.48c0-.08-.12-.1-.16,0s-.14.26-.22.39,0,0-.06,0l-.45,0c-.07,0-.1.09-.06.15l.3.4a.1.1,0,0,1,0,.09l-.1.46A.1.1,0,0,0,46.25,11.66Z"/><path class="cls-1" d="M43,11.07l.41-.18a.06.06,0,0,1,.08,0l.38.27a.08.08,0,0,0,.13-.08l-.05-.49a.11.11,0,0,1,0-.08l.34-.3a.1.1,0,0,0,0-.16l-.43-.13a.13.13,0,0,1-.07-.06c0-.16-.11-.31-.17-.46a.08.08,0,0,0-.15,0l-.22.41s0,0-.07,0l-.44,0a.1.1,0,0,0-.06.16l.3.37a.13.13,0,0,1,0,.09l-.1.47C42.82,11,42.89,11.1,43,11.07Z"/><path class="cls-1" d="M39.37,10.79l.41-.22h.08l.38.24c.06,0,.14,0,.13-.1l0-.48a.11.11,0,0,1,0-.08l.34-.33a.1.1,0,0,0,0-.17l-.44-.08a.15.15,0,0,1-.06-.05c0-.15-.11-.3-.17-.45a.08.08,0,0,0-.15,0c-.08.14-.15.29-.22.44a.18.18,0,0,1-.07.05l-.44.06a.11.11,0,0,0-.06.17l.3.34a.11.11,0,0,1,0,.08l-.11.48C39.24,10.77,39.31,10.83,39.37,10.79Z"/><path class="cls-1" d="M35.93,10.81l.41-.25s.06,0,.08,0l.38.2c.06,0,.14,0,.13-.1l0-.48a.16.16,0,0,1,0-.09l.34-.35a.09.09,0,0,0,0-.16l-.43-.05a.1.1,0,0,1-.06,0l-.18-.43c0-.07-.11-.07-.15,0l-.22.45s0,.05-.07.05l-.44.1a.11.11,0,0,0-.06.17l.3.32a.08.08,0,0,1,0,.08l-.1.49C35.8,10.8,35.87,10.85,35.93,10.81Z"/><path class="cls-1" d="M32.07,11.08l.4-.28s.06,0,.08,0l.38.18c.06,0,.14,0,.13-.11s0-.32,0-.48a.09.09,0,0,1,0-.09l.33-.38a.08.08,0,0,0,0-.15l-.43,0a.05.05,0,0,1-.06,0l-.17-.42c0-.07-.12-.06-.16,0s-.14.31-.22.46a.11.11,0,0,1-.07.06l-.44.13a.11.11,0,0,0-.06.16l.3.31a.08.08,0,0,1,0,.08L32,11C31.93,11.07,32,11.12,32.07,11.08Z"/><path class="cls-1" d="M28.63,11.46l.41-.29a.08.08,0,0,1,.08,0l.38.17c.06,0,.13,0,.13-.11s0-.32-.05-.48a.16.16,0,0,1,0-.09l.34-.39c.05-.06,0-.15,0-.15h-.44a.07.07,0,0,1-.06,0l-.17-.42c0-.07-.12-.05-.15,0l-.23.47a.14.14,0,0,1-.06.07l-.45.13a.11.11,0,0,0-.05.17l.29.3a.08.08,0,0,1,0,.08l-.1.5A.07.07,0,0,0,28.63,11.46Z"/><path class="cls-1" d="M45.65,15.49l.41-.15a.09.09,0,0,1,.08,0l.38.31a.08.08,0,0,0,.13-.07l0-.5a.11.11,0,0,1,0-.08l.34-.26a.11.11,0,0,0,0-.17l-.44-.17a.12.12,0,0,1-.06-.06c0-.16-.11-.32-.17-.48s-.12-.09-.15,0-.15.26-.22.39a.08.08,0,0,1-.07,0h-.44a.09.09,0,0,0-.06.15l.3.4a.13.13,0,0,1,0,.09c0,.15-.07.31-.11.46S45.59,15.52,45.65,15.49Z"/><path class="cls-1" d="M42.36,15l.4-.2a.11.11,0,0,1,.08,0l.38.27a.08.08,0,0,0,.13-.08l0-.49a.07.07,0,0,1,0-.08l.33-.31a.1.1,0,0,0,0-.16l-.44-.12a.09.09,0,0,1-.06-.06c-.06-.15-.12-.31-.17-.46a.09.09,0,0,0-.16,0c-.07.14-.14.28-.22.42a.08.08,0,0,1-.07,0l-.44,0a.1.1,0,0,0-.06.16l.3.37a.08.08,0,0,1,0,.08c0,.16-.07.32-.1.48A.09.09,0,0,0,42.36,15Z"/><path class="cls-1" d="M38.78,14.75l.4-.23a.06.06,0,0,1,.08,0l.38.23c.06,0,.14,0,.13-.1s0-.32,0-.48a.1.1,0,0,1,0-.09l.34-.33a.09.09,0,0,0,0-.16l-.43-.08a.1.1,0,0,1-.06,0c-.06-.15-.12-.3-.17-.45a.09.09,0,0,0-.16,0l-.22.44a.08.08,0,0,1-.07.05l-.44.08a.11.11,0,0,0-.06.16l.3.34a.08.08,0,0,1,0,.08l-.1.49A.09.09,0,0,0,38.78,14.75Z"/><path class="cls-1" d="M35.34,14.81l.41-.26a.06.06,0,0,1,.07,0l.38.21a.1.1,0,0,0,.13-.11l0-.48s0-.06,0-.09l.33-.36c.06-.05,0-.15,0-.15l-.44-.05a.06.06,0,0,1-.06,0c-.06-.14-.11-.28-.17-.43s-.12-.06-.16,0-.14.31-.22.46a.07.07,0,0,1-.06.05l-.45.11a.1.1,0,0,0-.05.16c.09.11.19.22.29.32a.08.08,0,0,1,0,.08c0,.17-.07.33-.1.5A.08.08,0,0,0,35.34,14.81Z"/><path class="cls-1" d="M31.47,15.1l.41-.27a.08.08,0,0,1,.08,0l.38.18c.06,0,.13,0,.13-.11l0-.48a.14.14,0,0,1,0-.09l.34-.38a.09.09,0,0,0,0-.16l-.44,0a.08.08,0,0,1-.06,0l-.17-.42c0-.07-.12-.06-.15,0s-.15.31-.22.46,0,.06-.07.06l-.45.13a.11.11,0,0,0-.05.17l.3.3a.11.11,0,0,1,0,.08l-.11.5C31.34,15.1,31.41,15.15,31.47,15.1Z"/><path class="cls-1" d="M28,15.5l.41-.29a.08.08,0,0,1,.08,0l.38.17c.06,0,.14,0,.13-.12L29,14.78a.14.14,0,0,1,0-.09l.34-.39c0-.06,0-.16,0-.16h-.43a.07.07,0,0,1-.07,0l-.17-.41c0-.07-.12,0-.15,0l-.22.47s0,.06-.07.06l-.44.14a.11.11,0,0,0-.06.17l.3.3a.11.11,0,0,1,0,.08l-.1.5C27.9,15.5,28,15.55,28,15.5Z"/><path class="cls-1" d="M44.81,7.71l.41-.16a.11.11,0,0,1,.08,0l.38.3a.08.08,0,0,0,.13-.07l-.05-.5a.08.08,0,0,1,0-.07l.34-.28a.11.11,0,0,0,0-.17l-.43-.15a.16.16,0,0,1-.07-.07c-.05-.15-.11-.31-.17-.47a.08.08,0,0,0-.15,0c-.07.13-.15.26-.22.4a.1.1,0,0,1-.07,0h-.44a.09.09,0,0,0-.06.15l.3.39a.1.1,0,0,1,0,.09l-.1.46C44.68,7.67,44.75,7.74,44.81,7.71Z"/><path class="cls-1" d="M41.23,7.25,41.64,7a.08.08,0,0,1,.08,0l.38.25a.09.09,0,0,0,.13-.09l0-.48a.11.11,0,0,1,0-.08l.34-.32a.1.1,0,0,0,0-.16l-.43-.11A.13.13,0,0,1,42,6l-.17-.46a.08.08,0,0,0-.15,0L41.47,6a.12.12,0,0,1-.07,0l-.44,0a.1.1,0,0,0-.06.16l.3.36a.11.11,0,0,1,0,.08l-.11.48C41.1,7.22,41.17,7.28,41.23,7.25Z"/><path class="cls-1" d="M37.8,7.12l.4-.23a.06.06,0,0,1,.08,0l.38.22a.1.1,0,0,0,.13-.1l0-.49a.11.11,0,0,1,0-.08l.34-.34a.09.09,0,0,0,0-.16l-.43-.07s0,0-.06,0l-.18-.44c0-.07-.11-.07-.15,0L38,5.83a.08.08,0,0,1-.07,0L37.52,6a.11.11,0,0,0-.06.17l.3.33a.08.08,0,0,1,0,.08l-.1.49A.08.08,0,0,0,37.8,7.12Z"/><path class="cls-1" d="M33.93,7.28l.4-.27a.08.08,0,0,1,.08,0l.38.2a.1.1,0,0,0,.13-.11l0-.48a.09.09,0,0,1,0-.09l.33-.37c.06-.05,0-.15,0-.15l-.44,0a.07.07,0,0,1-.06,0c-.06-.15-.12-.29-.17-.43s-.12-.06-.16,0-.14.31-.22.46a.11.11,0,0,1-.07.06l-.44.12a.11.11,0,0,0-.06.16l.3.31a.09.09,0,0,1,0,.09l-.1.49A.08.08,0,0,0,33.93,7.28Z"/><path class="cls-1" d="M30.49,7.59l.41-.28a.08.08,0,0,1,.08,0l.38.18c.06,0,.13,0,.13-.11l0-.48a.14.14,0,0,1,0-.09c.11-.13.22-.26.34-.38s0-.16,0-.16l-.44,0a.05.05,0,0,1-.06,0l-.17-.42a.08.08,0,0,0-.15,0l-.23.47a.12.12,0,0,1-.06.06l-.45.13a.11.11,0,0,0-.05.17l.29.3a.08.08,0,0,1,0,.08c0,.17-.06.34-.1.5S30.42,7.64,30.49,7.59Z"/><path class="cls-1" d="M25.91,19.1l.41-.29a.08.08,0,0,1,.08,0l.38.17c.06,0,.13,0,.13-.12l-.05-.48a.11.11,0,0,1,0-.08l.34-.4c.05-.06,0-.15,0-.15h-.44a.06.06,0,0,1-.06,0l-.17-.41c0-.07-.12-.05-.15,0l-.22.48a.13.13,0,0,1-.07.06l-.45.14a.11.11,0,0,0-.05.17l.3.29a.19.19,0,0,1,0,.08l-.11.5C25.78,19.1,25.85,19.15,25.91,19.1Z"/><path class="cls-4" d="M45.39,80.58h0a1.25,1.25,0,0,0,1.25-1.19L52.76,3.6a1.18,1.18,0,0,0-1-1.33h0a1.25,1.25,0,0,0-1.25,1.2L44.35,79.25A1.17,1.17,0,0,0,45.39,80.58Z"/></g></g></svg>